# Blender 5.1.2
# www.blender.org
mtllib wall.mtl
o Wall_Wall_0
v -10.615387 3.774370 0.273898
v -10.615387 4.052948 0.273898
v -11.244425 4.052948 0.273898
v -11.244425 3.774370 0.273898
v -10.577030 3.774370 -0.189024
v -10.577030 4.052949 -0.189024
v -10.577030 4.052949 0.193957
v -10.577030 3.774370 0.193957
v -10.615387 4.070837 -0.189024
v -11.244425 4.070837 -0.189024
v -11.244425 4.070837 0.193957
v -10.615387 4.070837 0.193957
v -11.282782 3.774370 0.193957
v -11.282782 4.052949 0.193957
v -11.282782 4.052949 -0.189024
v -11.282782 3.774370 -0.189024
v -11.244425 3.774370 -0.268965
v -11.244425 4.052949 -0.268965
v -10.615387 4.052949 -0.268965
v -10.615387 3.774370 -0.268965
v -11.244425 3.756482 0.193957
v -11.244425 3.761721 0.250484
v -11.266569 3.764042 0.240111
v -11.271547 3.761721 0.193957
v -11.244425 3.774370 0.273898
v -11.271547 3.774370 0.250484
v -11.266569 3.764042 0.240111
v -11.244425 3.761721 0.250484
v -11.282782 3.774370 0.193957
v -11.271547 3.761721 0.193957
v -11.266569 3.764042 0.240111
v -11.271547 3.774370 0.250484
v -11.244425 4.052948 0.273898
v -11.244425 4.065598 0.250484
v -11.266569 4.063276 0.240111
v -11.271547 4.052949 0.250484
v -11.244425 4.070837 0.193957
v -11.271547 4.065598 0.193957
v -11.266569 4.063276 0.240111
v -11.244425 4.065598 0.250484
v -11.282782 4.052949 0.193957
v -11.271547 4.052949 0.250484
v -11.266569 4.063276 0.240111
v -11.271547 4.065598 0.193957
v -11.244425 3.756482 -0.189024
v -11.271547 3.761721 -0.189024
v -11.266569 3.764042 -0.235178
v -11.244425 3.761721 -0.245550
v -11.282782 3.774370 -0.189024
v -11.271547 3.774370 -0.245551
v -11.266569 3.764042 -0.235178
v -11.271547 3.761721 -0.189024
v -11.244425 3.774370 -0.268965
v -11.244425 3.761721 -0.245550
v -11.266569 3.764042 -0.235178
v -11.271547 3.774370 -0.245551
v -11.244425 4.070837 -0.189024
v -11.244425 4.065598 -0.245550
v -11.266569 4.063276 -0.235178
v -11.271547 4.065598 -0.189024
v -11.244425 4.052949 -0.268965
v -11.271547 4.052949 -0.245550
v -11.266569 4.063276 -0.235178
v -11.244425 4.065598 -0.245550
v -11.282782 4.052949 -0.189024
v -11.271547 4.065598 -0.189024
v -11.266569 4.063276 -0.235178
v -11.271547 4.052949 -0.245550
v -10.615387 3.756482 0.193957
v -10.588264 3.761721 0.193957
v -10.593243 3.764042 0.240111
v -10.615387 3.761721 0.250484
v -10.577030 3.774370 0.193957
v -10.588264 3.774370 0.250484
v -10.593243 3.764042 0.240111
v -10.588264 3.761721 0.193957
v -10.615387 3.774370 0.273898
v -10.615387 3.761721 0.250484
v -10.593243 3.764042 0.240111
v -10.588264 3.774370 0.250484
v -10.615387 4.070837 0.193957
v -10.615387 4.065598 0.250484
v -10.593243 4.063276 0.240111
v -10.588264 4.065598 0.193957
v -10.615387 4.052948 0.273898
v -10.588264 4.052949 0.250484
v -10.593243 4.063276 0.240111
v -10.615387 4.065598 0.250484
v -10.577030 4.052949 0.193957
v -10.588264 4.065598 0.193957
v -10.593243 4.063276 0.240111
v -10.588264 4.052949 0.250484
v -10.615387 3.756482 -0.189024
v -10.615387 3.761721 -0.245551
v -10.593243 3.764042 -0.235178
v -10.588264 3.761721 -0.189024
v -10.615387 3.774370 -0.268965
v -10.588264 3.774370 -0.245551
v -10.593243 3.764042 -0.235178
v -10.615387 3.761721 -0.245551
v -10.577030 3.774370 -0.189024
v -10.588264 3.761721 -0.189024
v -10.593243 3.764042 -0.235178
v -10.588264 3.774370 -0.245551
v -10.615387 4.070837 -0.189024
v -10.588264 4.065598 -0.189024
v -10.593243 4.063276 -0.235178
v -10.615387 4.065598 -0.245551
v -10.577030 4.052949 -0.189024
v -10.588264 4.052949 -0.245551
v -10.593243 4.063276 -0.235178
v -10.588264 4.065598 -0.189024
v -10.615387 4.052949 -0.268965
v -10.615387 4.065598 -0.245551
v -10.593243 4.063276 -0.235178
v -10.588264 4.052949 -0.245551
v -11.244425 3.756482 -0.189024
v -11.244425 3.756482 0.193957
v -11.271547 3.761721 0.193957
v -11.271547 3.761721 -0.189024
v -11.271547 3.761721 -0.189024
v -11.271547 3.761721 0.193957
v -11.282782 3.774370 0.193957
v -11.282782 3.774370 -0.189024
v -11.244425 3.774370 0.273898
v -11.244425 4.052948 0.273898
v -11.271547 4.052949 0.250484
v -11.271547 3.774370 0.250484
v -11.271547 3.774370 0.250484
v -11.271547 4.052949 0.250484
v -11.282782 4.052949 0.193957
v -11.282782 3.774370 0.193957
v -11.244425 4.070837 0.193957
v -11.244425 4.070837 -0.189024
v -11.271547 4.065598 -0.189024
v -11.271547 4.065598 0.193957
v -11.271547 4.065598 0.193957
v -11.271547 4.065598 -0.189024
v -11.282782 4.052949 -0.189024
v -11.282782 4.052949 0.193957
v -11.244425 4.052949 -0.268965
v -11.244425 3.774370 -0.268965
v -11.271547 3.774370 -0.245551
v -11.271547 4.052949 -0.245550
v -11.271547 4.052949 -0.245550
v -11.271547 3.774370 -0.245551
v -11.282782 3.774370 -0.189024
v -11.282782 4.052949 -0.189024
v -10.615387 3.756482 -0.189024
v -11.244425 3.756482 -0.189024
v -11.244425 3.761721 -0.245550
v -10.615387 3.761721 -0.245551
v -10.615387 3.761721 -0.245551
v -11.244425 3.761721 -0.245550
v -11.244425 3.774370 -0.268965
v -10.615387 3.774370 -0.268965
v -11.244425 4.070837 -0.189024
v -10.615387 4.070837 -0.189024
v -10.615387 4.065598 -0.245551
v -11.244425 4.065598 -0.245550
v -11.244425 4.065598 -0.245550
v -10.615387 4.065598 -0.245551
v -10.615387 4.052949 -0.268965
v -11.244425 4.052949 -0.268965
v -10.577030 4.052949 -0.189024
v -10.577030 3.774370 -0.189024
v -10.588264 3.774370 -0.245551
v -10.588264 4.052949 -0.245551
v -10.588264 4.052949 -0.245551
v -10.588264 3.774370 -0.245551
v -10.615387 3.774370 -0.268965
v -10.615387 4.052949 -0.268965
v -10.615387 3.756482 0.193957
v -10.615387 3.756482 -0.189024
v -10.588264 3.761721 -0.189024
v -10.588264 3.761721 0.193957
v -10.588264 3.761721 0.193957
v -10.588264 3.761721 -0.189024
v -10.577030 3.774370 -0.189024
v -10.577030 3.774370 0.193957
v -10.615387 4.070837 -0.189024
v -10.615387 4.070837 0.193957
v -10.588264 4.065598 0.193957
v -10.588264 4.065598 -0.189024
v -10.588264 4.065598 -0.189024
v -10.588264 4.065598 0.193957
v -10.577030 4.052949 0.193957
v -10.577030 4.052949 -0.189024
v -10.615387 4.052948 0.273898
v -10.615387 3.774370 0.273898
v -10.588264 3.774370 0.250484
v -10.588264 4.052949 0.250484
v -10.588264 4.052949 0.250484
v -10.588264 3.774370 0.250484
v -10.577030 3.774370 0.193957
v -10.577030 4.052949 0.193957
v -11.244425 3.756482 0.193957
v -10.615387 3.756482 0.193957
v -10.615387 3.761721 0.250484
v -11.244425 3.761721 0.250484
v -11.244425 3.761721 0.250484
v -10.615387 3.761721 0.250484
v -10.615387 3.774370 0.273898
v -11.244425 3.774370 0.273898
v -10.615387 4.070837 0.193957
v -11.244425 4.070837 0.193957
v -11.244425 4.065598 0.250484
v -10.615387 4.065598 0.250484
v -10.615387 4.065598 0.250484
v -11.244425 4.065598 0.250484
v -11.244425 4.052948 0.273898
v -10.615387 4.052948 0.273898
v -11.244425 3.756482 -0.189024
v -10.615387 3.756482 -0.189024
v -10.615387 3.756482 0.193957
v -11.244425 3.756482 0.193957
v -9.203886 3.774370 0.273897
v -9.203886 4.052948 0.273898
v -9.832924 4.052948 0.273898
v -9.832924 3.774370 0.273898
v -9.165530 3.774370 -0.189024
v -9.165530 4.052949 -0.189024
v -9.165530 4.052949 0.193957
v -9.165530 3.774370 0.193957
v -9.203886 4.070837 -0.189024
v -9.832924 4.070837 -0.189024
v -9.832924 4.070837 0.193957
v -9.203886 4.070837 0.193957
v -9.871281 3.774370 0.193957
v -9.871281 4.052949 0.193957
v -9.871281 4.052949 -0.189024
v -9.871281 3.774370 -0.189024
v -9.832924 3.774370 -0.268965
v -9.832924 4.052949 -0.268965
v -9.203886 4.052949 -0.268965
v -9.203886 3.774370 -0.268965
v -9.832924 3.756482 0.193957
v -9.832924 3.761721 0.250483
v -9.855069 3.764042 0.240111
v -9.860045 3.761721 0.193957
v -9.832924 3.774370 0.273898
v -9.860045 3.774370 0.250483
v -9.855069 3.764042 0.240111
v -9.832924 3.761721 0.250483
v -9.871281 3.774370 0.193957
v -9.860045 3.761721 0.193957
v -9.855069 3.764042 0.240111
v -9.860045 3.774370 0.250483
v -9.832924 4.052948 0.273898
v -9.832924 4.065598 0.250483
v -9.855069 4.063276 0.240111
v -9.860045 4.052949 0.250483
v -9.832924 4.070837 0.193957
v -9.860045 4.065598 0.193957
v -9.855069 4.063276 0.240111
v -9.832924 4.065598 0.250483
v -9.871281 4.052949 0.193957
v -9.860045 4.052949 0.250483
v -9.855069 4.063276 0.240111
v -9.860045 4.065598 0.193957
v -9.832924 3.756482 -0.189024
v -9.860045 3.761721 -0.189024
v -9.855069 3.764042 -0.235178
v -9.832924 3.761721 -0.245551
v -9.871281 3.774370 -0.189024
v -9.860045 3.774370 -0.245551
v -9.855069 3.764042 -0.235178
v -9.860045 3.761721 -0.189024
v -9.832924 3.774370 -0.268965
v -9.832924 3.761721 -0.245551
v -9.855069 3.764042 -0.235178
v -9.860045 3.774370 -0.245551
v -9.832924 4.070837 -0.189024
v -9.832924 4.065598 -0.245551
v -9.855069 4.063276 -0.235178
v -9.860045 4.065598 -0.189024
v -9.832924 4.052949 -0.268965
v -9.860045 4.052949 -0.245551
v -9.855069 4.063276 -0.235178
v -9.832924 4.065598 -0.245551
v -9.871281 4.052949 -0.189024
v -9.860045 4.065598 -0.189024
v -9.855069 4.063276 -0.235178
v -9.860045 4.052949 -0.245551
v -9.203886 3.756482 0.193957
v -9.176764 3.761721 0.193957
v -9.181741 3.764042 0.240111
v -9.203886 3.761721 0.250483
v -9.165530 3.774370 0.193957
v -9.176764 3.774370 0.250483
v -9.181741 3.764042 0.240111
v -9.176764 3.761721 0.193957
v -9.203886 3.774370 0.273897
v -9.203886 3.761721 0.250483
v -9.181741 3.764042 0.240111
v -9.176764 3.774370 0.250483
v -9.203886 4.070837 0.193957
v -9.203886 4.065598 0.250483
v -9.181741 4.063276 0.240111
v -9.176764 4.065598 0.193957
v -9.203886 4.052948 0.273898
v -9.176764 4.052949 0.250483
v -9.181741 4.063276 0.240111
v -9.203886 4.065598 0.250483
v -9.165530 4.052949 0.193957
v -9.176764 4.065598 0.193957
v -9.181741 4.063276 0.240111
v -9.176764 4.052949 0.250483
v -9.203886 3.756482 -0.189024
v -9.203886 3.761721 -0.245551
v -9.181741 3.764042 -0.235178
v -9.176764 3.761721 -0.189024
v -9.203886 3.774370 -0.268965
v -9.176764 3.774370 -0.245551
v -9.181741 3.764042 -0.235178
v -9.203886 3.761721 -0.245551
v -9.165530 3.774370 -0.189024
v -9.176764 3.761721 -0.189024
v -9.181741 3.764042 -0.235178
v -9.176764 3.774370 -0.245551
v -9.203886 4.070837 -0.189024
v -9.176764 4.065598 -0.189024
v -9.181741 4.063276 -0.235178
v -9.203886 4.065598 -0.245551
v -9.165530 4.052949 -0.189024
v -9.176764 4.052949 -0.245551
v -9.181741 4.063276 -0.235178
v -9.176764 4.065598 -0.189024
v -9.203886 4.052949 -0.268965
v -9.203886 4.065598 -0.245551
v -9.181741 4.063276 -0.235178
v -9.176764 4.052949 -0.245551
v -9.832924 3.756482 -0.189024
v -9.832924 3.756482 0.193957
v -9.860045 3.761721 0.193957
v -9.860045 3.761721 -0.189024
v -9.860045 3.761721 -0.189024
v -9.860045 3.761721 0.193957
v -9.871281 3.774370 0.193957
v -9.871281 3.774370 -0.189024
v -9.832924 3.774370 0.273898
v -9.832924 4.052948 0.273898
v -9.860045 4.052949 0.250483
v -9.860045 3.774370 0.250483
v -9.860045 3.774370 0.250483
v -9.860045 4.052949 0.250483
v -9.871281 4.052949 0.193957
v -9.871281 3.774370 0.193957
v -9.832924 4.070837 0.193957
v -9.832924 4.070837 -0.189024
v -9.860045 4.065598 -0.189024
v -9.860045 4.065598 0.193957
v -9.860045 4.065598 0.193957
v -9.860045 4.065598 -0.189024
v -9.871281 4.052949 -0.189024
v -9.871281 4.052949 0.193957
v -9.832924 4.052949 -0.268965
v -9.832924 3.774370 -0.268965
v -9.860045 3.774370 -0.245551
v -9.860045 4.052949 -0.245551
v -9.860045 4.052949 -0.245551
v -9.860045 3.774370 -0.245551
v -9.871281 3.774370 -0.189024
v -9.871281 4.052949 -0.189024
v -9.203886 3.756482 -0.189024
v -9.832924 3.756482 -0.189024
v -9.832924 3.761721 -0.245551
v -9.203886 3.761721 -0.245551
v -9.203886 3.761721 -0.245551
v -9.832924 3.761721 -0.245551
v -9.832924 3.774370 -0.268965
v -9.203886 3.774370 -0.268965
v -9.832924 4.070837 -0.189024
v -9.203886 4.070837 -0.189024
v -9.203886 4.065598 -0.245551
v -9.832924 4.065598 -0.245551
v -9.832924 4.065598 -0.245551
v -9.203886 4.065598 -0.245551
v -9.203886 4.052949 -0.268965
v -9.832924 4.052949 -0.268965
v -9.165530 4.052949 -0.189024
v -9.165530 3.774370 -0.189024
v -9.176764 3.774370 -0.245551
v -9.176764 4.052949 -0.245551
v -9.176764 4.052949 -0.245551
v -9.176764 3.774370 -0.245551
v -9.203886 3.774370 -0.268965
v -9.203886 4.052949 -0.268965
v -9.203886 3.756482 0.193957
v -9.203886 3.756482 -0.189024
v -9.176764 3.761721 -0.189024
v -9.176764 3.761721 0.193957
v -9.176764 3.761721 0.193957
v -9.176764 3.761721 -0.189024
v -9.165530 3.774370 -0.189024
v -9.165530 3.774370 0.193957
v -9.203886 4.070837 -0.189024
v -9.203886 4.070837 0.193957
v -9.176764 4.065598 0.193957
v -9.176764 4.065598 -0.189024
v -9.176764 4.065598 -0.189024
v -9.176764 4.065598 0.193957
v -9.165530 4.052949 0.193957
v -9.165530 4.052949 -0.189024
v -9.203886 4.052948 0.273898
v -9.203886 3.774370 0.273897
v -9.176764 3.774370 0.250483
v -9.176764 4.052949 0.250483
v -9.176764 4.052949 0.250483
v -9.176764 3.774370 0.250483
v -9.165530 3.774370 0.193957
v -9.165530 4.052949 0.193957
v -9.832924 3.756482 0.193957
v -9.203886 3.756482 0.193957
v -9.203886 3.761721 0.250483
v -9.832924 3.761721 0.250483
v -9.832924 3.761721 0.250483
v -9.203886 3.761721 0.250483
v -9.203886 3.774370 0.273897
v -9.832924 3.774370 0.273898
v -9.203886 4.070837 0.193957
v -9.832924 4.070837 0.193957
v -9.832924 4.065598 0.250483
v -9.203886 4.065598 0.250483
v -9.203886 4.065598 0.250483
v -9.832924 4.065598 0.250483
v -9.832924 4.052948 0.273898
v -9.203886 4.052948 0.273898
v -9.832924 3.756482 -0.189024
v -9.203886 3.756482 -0.189024
v -9.203886 3.756482 0.193957
v -9.832924 3.756482 0.193957
v -7.792385 3.774370 0.273897
v -7.792385 4.052948 0.273897
v -8.421423 4.052948 0.273897
v -8.421423 3.774370 0.273897
v -7.754029 3.774370 -0.189024
v -7.754029 4.052949 -0.189025
v -7.754029 4.052949 0.193957
v -7.754029 3.774370 0.193957
v -7.792385 4.070837 -0.189025
v -8.421423 4.070837 -0.189025
v -8.421423 4.070837 0.193957
v -7.792385 4.070837 0.193957
v -8.459780 3.774370 0.193957
v -8.459780 4.052949 0.193957
v -8.459780 4.052949 -0.189024
v -8.459780 3.774370 -0.189024
v -8.421423 3.774370 -0.268965
v -8.421423 4.052949 -0.268965
v -7.792385 4.052949 -0.268965
v -7.792385 3.774370 -0.268965
v -8.421423 3.756482 0.193957
v -8.421423 3.761721 0.250483
v -8.443568 3.764042 0.240110
v -8.448545 3.761721 0.193957
v -8.421423 3.774370 0.273897
v -8.448545 3.774370 0.250483
v -8.443568 3.764042 0.240110
v -8.421423 3.761721 0.250483
v -8.459780 3.774370 0.193957
v -8.448545 3.761721 0.193957
v -8.443568 3.764042 0.240110
v -8.448545 3.774370 0.250483
v -8.421423 4.052948 0.273897
v -8.421423 4.065598 0.250483
v -8.443568 4.063276 0.240110
v -8.448545 4.052949 0.250483
v -8.421423 4.070837 0.193957
v -8.448545 4.065598 0.193957
v -8.443568 4.063276 0.240110
v -8.421423 4.065598 0.250483
v -8.459780 4.052949 0.193957
v -8.448545 4.052949 0.250483
v -8.443568 4.063276 0.240110
v -8.448545 4.065598 0.193957
v -8.421423 3.756482 -0.189024
v -8.448545 3.761721 -0.189024
v -8.443568 3.764042 -0.235178
v -8.421423 3.761721 -0.245551
v -8.459780 3.774370 -0.189024
v -8.448545 3.774370 -0.245551
v -8.443568 3.764042 -0.235178
v -8.448545 3.761721 -0.189024
v -8.421423 3.774370 -0.268965
v -8.421423 3.761721 -0.245551
v -8.443568 3.764042 -0.235178
v -8.448545 3.774370 -0.245551
v -8.421423 4.070837 -0.189025
v -8.421423 4.065598 -0.245551
v -8.443568 4.063276 -0.235178
v -8.448545 4.065598 -0.189025
v -8.421423 4.052949 -0.268965
v -8.448545 4.052949 -0.245551
v -8.443568 4.063276 -0.235178
v -8.421423 4.065598 -0.245551
v -8.459780 4.052949 -0.189024
v -8.448545 4.065598 -0.189025
v -8.443568 4.063276 -0.235178
v -8.448545 4.052949 -0.245551
v -7.792385 3.756482 0.193957
v -7.765264 3.761721 0.193957
v -7.770241 3.764042 0.240110
v -7.792385 3.761721 0.250483
v -7.754029 3.774370 0.193957
v -7.765264 3.774370 0.250483
v -7.770241 3.764042 0.240110
v -7.765264 3.761721 0.193957
v -7.792385 3.774370 0.273897
v -7.792385 3.761721 0.250483
v -7.770241 3.764042 0.240110
v -7.765264 3.774370 0.250483
v -7.792385 4.070837 0.193957
v -7.792385 4.065598 0.250483
v -7.770240 4.063276 0.240110
v -7.765264 4.065598 0.193957
v -7.792385 4.052948 0.273897
v -7.765264 4.052949 0.250483
v -7.770240 4.063276 0.240110
v -7.792385 4.065598 0.250483
v -7.754029 4.052949 0.193957
v -7.765264 4.065598 0.193957
v -7.770240 4.063276 0.240110
v -7.765264 4.052949 0.250483
v -7.792385 3.756482 -0.189024
v -7.792385 3.761721 -0.245551
v -7.770240 3.764042 -0.235178
v -7.765264 3.761721 -0.189024
v -7.792385 3.774370 -0.268965
v -7.765264 3.774370 -0.245551
v -7.770240 3.764042 -0.235178
v -7.792385 3.761721 -0.245551
v -7.754029 3.774370 -0.189024
v -7.765264 3.761721 -0.189024
v -7.770240 3.764042 -0.235178
v -7.765264 3.774370 -0.245551
v -7.792385 4.070837 -0.189025
v -7.765264 4.065598 -0.189025
v -7.770241 4.063276 -0.235178
v -7.792385 4.065598 -0.245551
v -7.754029 4.052949 -0.189025
v -7.765264 4.052949 -0.245551
v -7.770241 4.063276 -0.235178
v -7.765264 4.065598 -0.189025
v -7.792385 4.052949 -0.268965
v -7.792385 4.065598 -0.245551
v -7.770241 4.063276 -0.235178
v -7.765264 4.052949 -0.245551
v -8.421423 3.756482 -0.189024
v -8.421423 3.756482 0.193957
v -8.448545 3.761721 0.193957
v -8.448545 3.761721 -0.189024
v -8.448545 3.761721 -0.189024
v -8.448545 3.761721 0.193957
v -8.459780 3.774370 0.193957
v -8.459780 3.774370 -0.189024
v -8.421423 3.774370 0.273897
v -8.421423 4.052948 0.273897
v -8.448545 4.052949 0.250483
v -8.448545 3.774370 0.250483
v -8.448545 3.774370 0.250483
v -8.448545 4.052949 0.250483
v -8.459780 4.052949 0.193957
v -8.459780 3.774370 0.193957
v -8.421423 4.070837 0.193957
v -8.421423 4.070837 -0.189025
v -8.448545 4.065598 -0.189025
v -8.448545 4.065598 0.193957
v -8.448545 4.065598 0.193957
v -8.448545 4.065598 -0.189025
v -8.459780 4.052949 -0.189024
v -8.459780 4.052949 0.193957
v -8.421423 4.052949 -0.268965
v -8.421423 3.774370 -0.268965
v -8.448545 3.774370 -0.245551
v -8.448545 4.052949 -0.245551
v -8.448545 4.052949 -0.245551
v -8.448545 3.774370 -0.245551
v -8.459780 3.774370 -0.189024
v -8.459780 4.052949 -0.189024
v -7.792385 3.756482 -0.189024
v -8.421423 3.756482 -0.189024
v -8.421423 3.761721 -0.245551
v -7.792385 3.761721 -0.245551
v -7.792385 3.761721 -0.245551
v -8.421423 3.761721 -0.245551
v -8.421423 3.774370 -0.268965
v -7.792385 3.774370 -0.268965
v -8.421423 4.070837 -0.189025
v -7.792385 4.070837 -0.189025
v -7.792385 4.065598 -0.245551
v -8.421423 4.065598 -0.245551
v -8.421423 4.065598 -0.245551
v -7.792385 4.065598 -0.245551
v -7.792385 4.052949 -0.268965
v -8.421423 4.052949 -0.268965
v -7.754029 4.052949 -0.189025
v -7.754029 3.774370 -0.189024
v -7.765264 3.774370 -0.245551
v -7.765264 4.052949 -0.245551
v -7.765264 4.052949 -0.245551
v -7.765264 3.774370 -0.245551
v -7.792385 3.774370 -0.268965
v -7.792385 4.052949 -0.268965
v -7.792385 3.756482 0.193957
v -7.792385 3.756482 -0.189024
v -7.765264 3.761721 -0.189024
v -7.765264 3.761721 0.193957
v -7.765264 3.761721 0.193957
v -7.765264 3.761721 -0.189024
v -7.754029 3.774370 -0.189024
v -7.754029 3.774370 0.193957
v -7.792385 4.070837 -0.189025
v -7.792385 4.070837 0.193957
v -7.765264 4.065598 0.193957
v -7.765264 4.065598 -0.189025
v -7.765264 4.065598 -0.189025
v -7.765264 4.065598 0.193957
v -7.754029 4.052949 0.193957
v -7.754029 4.052949 -0.189025
v -7.792385 4.052948 0.273897
v -7.792385 3.774370 0.273897
v -7.765264 3.774370 0.250483
v -7.765264 4.052949 0.250483
v -7.765264 4.052949 0.250483
v -7.765264 3.774370 0.250483
v -7.754029 3.774370 0.193957
v -7.754029 4.052949 0.193957
v -8.421423 3.756482 0.193957
v -7.792385 3.756482 0.193957
v -7.792385 3.761721 0.250483
v -8.421423 3.761721 0.250483
v -8.421423 3.761721 0.250483
v -7.792385 3.761721 0.250483
v -7.792385 3.774370 0.273897
v -8.421423 3.774370 0.273897
v -7.792385 4.070837 0.193957
v -8.421423 4.070837 0.193957
v -8.421423 4.065598 0.250483
v -7.792385 4.065598 0.250483
v -7.792385 4.065598 0.250483
v -8.421423 4.065598 0.250483
v -8.421423 4.052948 0.273897
v -7.792385 4.052948 0.273897
v -8.421423 3.756482 -0.189024
v -7.792385 3.756482 -0.189024
v -7.792385 3.756482 0.193957
v -8.421423 3.756482 0.193957
v -6.380884 3.774370 0.273897
v -6.380884 4.052948 0.273897
v -7.009923 4.052948 0.273897
v -7.009923 3.774370 0.273897
v -6.342528 3.774370 -0.189024
v -6.342528 4.052949 -0.189025
v -6.342528 4.052949 0.193957
v -6.342528 3.774370 0.193957
v -6.380884 4.070837 -0.189025
v -7.009923 4.070837 -0.189025
v -7.009923 4.070837 0.193957
v -6.380884 4.070837 0.193957
v -7.048279 3.774370 0.193957
v -7.048279 4.052949 0.193957
v -7.048279 4.052949 -0.189025
v -7.048279 3.774370 -0.189024
v -7.009923 3.774370 -0.268965
v -7.009923 4.052949 -0.268965
v -6.380884 4.052949 -0.268965
v -6.380884 3.774370 -0.268965
v -7.009923 3.756482 0.193957
v -7.009923 3.761721 0.250483
v -7.032067 3.764042 0.240110
v -7.037045 3.761721 0.193957
v -7.009923 3.774370 0.273897
v -7.037045 3.774370 0.250483
v -7.032067 3.764042 0.240110
v -7.009923 3.761721 0.250483
v -7.048279 3.774370 0.193957
v -7.037045 3.761721 0.193957
v -7.032067 3.764042 0.240110
v -7.037045 3.774370 0.250483
v -7.009923 4.052948 0.273897
v -7.009923 4.065598 0.250483
v -7.032067 4.063276 0.240110
v -7.037045 4.052949 0.250483
v -7.009923 4.070837 0.193957
v -7.037045 4.065598 0.193957
v -7.032067 4.063276 0.240110
v -7.009923 4.065598 0.250483
v -7.048279 4.052949 0.193957
v -7.037045 4.052949 0.250483
v -7.032067 4.063276 0.240110
v -7.037045 4.065598 0.193957
v -7.009923 3.756482 -0.189024
v -7.037045 3.761721 -0.189024
v -7.032067 3.764042 -0.235178
v -7.009923 3.761721 -0.245551
v -7.048279 3.774370 -0.189024
v -7.037045 3.774370 -0.245551
v -7.032067 3.764042 -0.235178
v -7.037045 3.761721 -0.189024
v -7.009923 3.774370 -0.268965
v -7.009923 3.761721 -0.245551
v -7.032067 3.764042 -0.235178
v -7.037045 3.774370 -0.245551
v -7.009923 4.070837 -0.189025
v -7.009923 4.065598 -0.245551
v -7.032067 4.063276 -0.235178
v -7.037045 4.065598 -0.189025
v -7.009923 4.052949 -0.268965
v -7.037045 4.052949 -0.245551
v -7.032067 4.063276 -0.235178
v -7.009923 4.065598 -0.245551
v -7.048279 4.052949 -0.189025
v -7.037045 4.065598 -0.189025
v -7.032067 4.063276 -0.235178
v -7.037045 4.052949 -0.245551
v -6.380884 3.756482 0.193957
v -6.353763 3.761721 0.193957
v -6.358740 3.764042 0.240110
v -6.380885 3.761721 0.250483
v -6.342528 3.774370 0.193957
v -6.353763 3.774370 0.250483
v -6.358740 3.764042 0.240110
v -6.353763 3.761721 0.193957
v -6.380884 3.774370 0.273897
v -6.380885 3.761721 0.250483
v -6.358740 3.764042 0.240110
v -6.353763 3.774370 0.250483
v -6.380884 4.070837 0.193957
v -6.380884 4.065598 0.250483
v -6.358740 4.063276 0.240110
v -6.353763 4.065598 0.193956
v -6.380884 4.052948 0.273897
v -6.353763 4.052949 0.250483
v -6.358740 4.063276 0.240110
v -6.380884 4.065598 0.250483
v -6.342528 4.052949 0.193957
v -6.353763 4.065598 0.193956
v -6.358740 4.063276 0.240110
v -6.353763 4.052949 0.250483
v -6.380884 3.756482 -0.189024
v -6.380884 3.761721 -0.245551
v -6.358740 3.764042 -0.235178
v -6.353763 3.761721 -0.189024
v -6.380884 3.774370 -0.268965
v -6.353763 3.774370 -0.245551
v -6.358740 3.764042 -0.235178
v -6.380884 3.761721 -0.245551
v -6.342528 3.774370 -0.189024
v -6.353763 3.761721 -0.189024
v -6.358740 3.764042 -0.235178
v -6.353763 3.774370 -0.245551
v -6.380884 4.070837 -0.189025
v -6.353763 4.065598 -0.189025
v -6.358740 4.063276 -0.235178
v -6.380885 4.065598 -0.245551
v -6.342528 4.052949 -0.189025
v -6.353763 4.052949 -0.245551
v -6.358740 4.063276 -0.235178
v -6.353763 4.065598 -0.189025
v -6.380884 4.052949 -0.268965
v -6.380885 4.065598 -0.245551
v -6.358740 4.063276 -0.235178
v -6.353763 4.052949 -0.245551
v -7.009923 3.756482 -0.189024
v -7.009923 3.756482 0.193957
v -7.037045 3.761721 0.193957
v -7.037045 3.761721 -0.189024
v -7.037045 3.761721 -0.189024
v -7.037045 3.761721 0.193957
v -7.048279 3.774370 0.193957
v -7.048279 3.774370 -0.189024
v -7.009923 3.774370 0.273897
v -7.009923 4.052948 0.273897
v -7.037045 4.052949 0.250483
v -7.037045 3.774370 0.250483
v -7.037045 3.774370 0.250483
v -7.037045 4.052949 0.250483
v -7.048279 4.052949 0.193957
v -7.048279 3.774370 0.193957
v -7.009923 4.070837 0.193957
v -7.009923 4.070837 -0.189025
v -7.037045 4.065598 -0.189025
v -7.037045 4.065598 0.193957
v -7.037045 4.065598 0.193957
v -7.037045 4.065598 -0.189025
v -7.048279 4.052949 -0.189025
v -7.048279 4.052949 0.193957
v -7.009923 4.052949 -0.268965
v -7.009923 3.774370 -0.268965
v -7.037045 3.774370 -0.245551
v -7.037045 4.052949 -0.245551
v -7.037045 4.052949 -0.245551
v -7.037045 3.774370 -0.245551
v -7.048279 3.774370 -0.189024
v -7.048279 4.052949 -0.189025
v -6.380884 3.756482 -0.189024
v -7.009923 3.756482 -0.189024
v -7.009923 3.761721 -0.245551
v -6.380884 3.761721 -0.245551
v -6.380884 3.761721 -0.245551
v -7.009923 3.761721 -0.245551
v -7.009923 3.774370 -0.268965
v -6.380884 3.774370 -0.268965
v -7.009923 4.070837 -0.189025
v -6.380884 4.070837 -0.189025
v -6.380885 4.065598 -0.245551
v -7.009923 4.065598 -0.245551
v -7.009923 4.065598 -0.245551
v -6.380885 4.065598 -0.245551
v -6.380884 4.052949 -0.268965
v -7.009923 4.052949 -0.268965
v -6.342528 4.052949 -0.189025
v -6.342528 3.774370 -0.189024
v -6.353763 3.774370 -0.245551
v -6.353763 4.052949 -0.245551
v -6.353763 4.052949 -0.245551
v -6.353763 3.774370 -0.245551
v -6.380884 3.774370 -0.268965
v -6.380884 4.052949 -0.268965
v -6.380884 3.756482 0.193957
v -6.380884 3.756482 -0.189024
v -6.353763 3.761721 -0.189024
v -6.353763 3.761721 0.193957
v -6.353763 3.761721 0.193957
v -6.353763 3.761721 -0.189024
v -6.342528 3.774370 -0.189024
v -6.342528 3.774370 0.193957
v -6.380884 4.070837 -0.189025
v -6.380884 4.070837 0.193957
v -6.353763 4.065598 0.193956
v -6.353763 4.065598 -0.189025
v -6.353763 4.065598 -0.189025
v -6.353763 4.065598 0.193956
v -6.342528 4.052949 0.193957
v -6.342528 4.052949 -0.189025
v -6.380884 4.052948 0.273897
v -6.380884 3.774370 0.273897
v -6.353763 3.774370 0.250483
v -6.353763 4.052949 0.250483
v -6.353763 4.052949 0.250483
v -6.353763 3.774370 0.250483
v -6.342528 3.774370 0.193957
v -6.342528 4.052949 0.193957
v -7.009923 3.756482 0.193957
v -6.380884 3.756482 0.193957
v -6.380885 3.761721 0.250483
v -7.009923 3.761721 0.250483
v -7.009923 3.761721 0.250483
v -6.380885 3.761721 0.250483
v -6.380884 3.774370 0.273897
v -7.009923 3.774370 0.273897
v -6.380884 4.070837 0.193957
v -7.009923 4.070837 0.193957
v -7.009923 4.065598 0.250483
v -6.380884 4.065598 0.250483
v -6.380884 4.065598 0.250483
v -7.009923 4.065598 0.250483
v -7.009923 4.052948 0.273897
v -6.380884 4.052948 0.273897
v -7.009923 3.756482 -0.189024
v -6.380884 3.756482 -0.189024
v -6.380884 3.756482 0.193957
v -7.009923 3.756482 0.193957
v -4.969384 3.774370 0.273897
v -4.969384 4.052948 0.273897
v -5.598422 4.052948 0.273897
v -5.598422 3.774370 0.273897
v -4.931028 3.774370 -0.189025
v -4.931028 4.052949 -0.189025
v -4.931028 4.052949 0.193957
v -4.931028 3.774370 0.193957
v -4.969384 4.070837 -0.189025
v -5.598422 4.070837 -0.189025
v -5.598422 4.070837 0.193957
v -4.969384 4.070837 0.193957
v -5.636777 3.774370 0.193957
v -5.636777 4.052949 0.193957
v -5.636777 4.052949 -0.189025
v -5.636777 3.774370 -0.189025
v -5.598422 3.774370 -0.268965
v -5.598422 4.052949 -0.268965
v -4.969384 4.052949 -0.268965
v -4.969384 3.774370 -0.268965
v -5.598422 3.756482 0.193957
v -5.598422 3.761721 0.250483
v -5.620566 3.764042 0.240110
v -5.625544 3.761721 0.193957
v -5.598422 3.774370 0.273897
v -5.625544 3.774370 0.250483
v -5.620566 3.764042 0.240110
v -5.598422 3.761721 0.250483
v -5.636777 3.774370 0.193957
v -5.625544 3.761721 0.193957
v -5.620566 3.764042 0.240110
v -5.625544 3.774370 0.250483
v -5.598422 4.052948 0.273897
v -5.598422 4.065598 0.250483
v -5.620566 4.063276 0.240110
v -5.625544 4.052949 0.250483
v -5.598422 4.070837 0.193957
v -5.625544 4.065598 0.193956
v -5.620566 4.063276 0.240110
v -5.598422 4.065598 0.250483
v -5.636777 4.052949 0.193957
v -5.625544 4.052949 0.250483
v -5.620566 4.063276 0.240110
v -5.625544 4.065598 0.193956
v -5.598422 3.756482 -0.189025
v -5.625544 3.761721 -0.189025
v -5.620566 3.764042 -0.235178
v -5.598421 3.761721 -0.245551
v -5.636777 3.774370 -0.189025
v -5.625544 3.774370 -0.245551
v -5.620566 3.764042 -0.235178
v -5.625544 3.761721 -0.189025
v -5.598422 3.774370 -0.268965
v -5.598421 3.761721 -0.245551
v -5.620566 3.764042 -0.235178
v -5.625544 3.774370 -0.245551
v -5.598422 4.070837 -0.189025
v -5.598422 4.065598 -0.245551
v -5.620566 4.063276 -0.235178
v -5.625544 4.065598 -0.189025
v -5.598422 4.052949 -0.268965
v -5.625544 4.052949 -0.245551
v -5.620566 4.063276 -0.235178
v -5.598422 4.065598 -0.245551
v -5.636777 4.052949 -0.189025
v -5.625544 4.065598 -0.189025
v -5.620566 4.063276 -0.235178
v -5.625544 4.052949 -0.245551
v -4.969384 3.756482 0.193957
v -4.942262 3.761721 0.193957
v -4.947239 3.764042 0.240110
v -4.969385 3.761721 0.250483
v -4.931028 3.774370 0.193957
v -4.942262 3.774370 0.250483
v -4.947239 3.764042 0.240110
v -4.942262 3.761721 0.193957
v -4.969384 3.774370 0.273897
v -4.969385 3.761721 0.250483
v -4.947239 3.764042 0.240110
v -4.942262 3.774370 0.250483
v -4.969384 4.070837 0.193957
v -4.969384 4.065598 0.250483
v -4.947239 4.063276 0.240110
v -4.942262 4.065598 0.193956
v -4.969384 4.052948 0.273897
v -4.942262 4.052949 0.250483
v -4.947239 4.063276 0.240110
v -4.969384 4.065598 0.250483
v -4.931028 4.052949 0.193957
v -4.942262 4.065598 0.193956
v -4.947239 4.063276 0.240110
v -4.942262 4.052949 0.250483
v -4.969384 3.756482 -0.189025
v -4.969384 3.761721 -0.245551
v -4.947239 3.764042 -0.235178
v -4.942262 3.761721 -0.189025
v -4.969384 3.774370 -0.268965
v -4.942262 3.774370 -0.245551
v -4.947239 3.764042 -0.235178
v -4.969384 3.761721 -0.245551
v -4.931028 3.774370 -0.189025
v -4.942262 3.761721 -0.189025
v -4.947239 3.764042 -0.235178
v -4.942262 3.774370 -0.245551
v -4.969384 4.070837 -0.189025
v -4.942262 4.065598 -0.189025
v -4.947239 4.063276 -0.235178
v -4.969385 4.065598 -0.245551
v -4.931028 4.052949 -0.189025
v -4.942262 4.052949 -0.245551
v -4.947239 4.063276 -0.235178
v -4.942262 4.065598 -0.189025
v -4.969384 4.052949 -0.268965
v -4.969385 4.065598 -0.245551
v -4.947239 4.063276 -0.235178
v -4.942262 4.052949 -0.245551
v -5.598422 3.756482 -0.189025
v -5.598422 3.756482 0.193957
v -5.625544 3.761721 0.193957
v -5.625544 3.761721 -0.189025
v -5.625544 3.761721 -0.189025
v -5.625544 3.761721 0.193957
v -5.636777 3.774370 0.193957
v -5.636777 3.774370 -0.189025
v -5.598422 3.774370 0.273897
v -5.598422 4.052948 0.273897
v -5.625544 4.052949 0.250483
v -5.625544 3.774370 0.250483
v -5.625544 3.774370 0.250483
v -5.625544 4.052949 0.250483
v -5.636777 4.052949 0.193957
v -5.636777 3.774370 0.193957
v -5.598422 4.070837 0.193957
v -5.598422 4.070837 -0.189025
v -5.625544 4.065598 -0.189025
v -5.625544 4.065598 0.193956
v -5.625544 4.065598 0.193956
v -5.625544 4.065598 -0.189025
v -5.636777 4.052949 -0.189025
v -5.636777 4.052949 0.193957
v -5.598422 4.052949 -0.268965
v -5.598422 3.774370 -0.268965
v -5.625544 3.774370 -0.245551
v -5.625544 4.052949 -0.245551
v -5.625544 4.052949 -0.245551
v -5.625544 3.774370 -0.245551
v -5.636777 3.774370 -0.189025
v -5.636777 4.052949 -0.189025
v -4.969384 3.756482 -0.189025
v -5.598422 3.756482 -0.189025
v -5.598421 3.761721 -0.245551
v -4.969384 3.761721 -0.245551
v -4.969384 3.761721 -0.245551
v -5.598421 3.761721 -0.245551
v -5.598422 3.774370 -0.268965
v -4.969384 3.774370 -0.268965
v -5.598422 4.070837 -0.189025
v -4.969384 4.070837 -0.189025
v -4.969385 4.065598 -0.245551
v -5.598422 4.065598 -0.245551
v -5.598422 4.065598 -0.245551
v -4.969385 4.065598 -0.245551
v -4.969384 4.052949 -0.268965
v -5.598422 4.052949 -0.268965
v -4.931028 4.052949 -0.189025
v -4.931028 3.774370 -0.189025
v -4.942262 3.774370 -0.245551
v -4.942262 4.052949 -0.245551
v -4.942262 4.052949 -0.245551
v -4.942262 3.774370 -0.245551
v -4.969384 3.774370 -0.268965
v -4.969384 4.052949 -0.268965
v -4.969384 3.756482 0.193957
v -4.969384 3.756482 -0.189025
v -4.942262 3.761721 -0.189025
v -4.942262 3.761721 0.193957
v -4.942262 3.761721 0.193957
v -4.942262 3.761721 -0.189025
v -4.931028 3.774370 -0.189025
v -4.931028 3.774370 0.193957
v -4.969384 4.070837 -0.189025
v -4.969384 4.070837 0.193957
v -4.942262 4.065598 0.193956
v -4.942262 4.065598 -0.189025
v -4.942262 4.065598 -0.189025
v -4.942262 4.065598 0.193956
v -4.931028 4.052949 0.193957
v -4.931028 4.052949 -0.189025
v -4.969384 4.052948 0.273897
v -4.969384 3.774370 0.273897
v -4.942262 3.774370 0.250483
v -4.942262 4.052949 0.250483
v -4.942262 4.052949 0.250483
v -4.942262 3.774370 0.250483
v -4.931028 3.774370 0.193957
v -4.931028 4.052949 0.193957
v -5.598422 3.756482 0.193957
v -4.969384 3.756482 0.193957
v -4.969385 3.761721 0.250483
v -5.598422 3.761721 0.250483
v -5.598422 3.761721 0.250483
v -4.969385 3.761721 0.250483
v -4.969384 3.774370 0.273897
v -5.598422 3.774370 0.273897
v -4.969384 4.070837 0.193957
v -5.598422 4.070837 0.193957
v -5.598422 4.065598 0.250483
v -4.969384 4.065598 0.250483
v -4.969384 4.065598 0.250483
v -5.598422 4.065598 0.250483
v -5.598422 4.052948 0.273897
v -4.969384 4.052948 0.273897
v -5.598422 3.756482 -0.189025
v -4.969384 3.756482 -0.189025
v -4.969384 3.756482 0.193957
v -5.598422 3.756482 0.193957
v -3.557883 3.774370 0.273897
v -3.557883 4.052948 0.273897
v -4.186922 4.052948 0.273897
v -4.186922 3.774370 0.273897
v -3.519527 3.774370 -0.189025
v -3.519527 4.052949 -0.189025
v -3.519527 4.052949 0.193956
v -3.519527 3.774370 0.193956
v -3.557883 4.070837 -0.189025
v -4.186922 4.070837 -0.189025
v -4.186922 4.070837 0.193957
v -3.557883 4.070837 0.193956
v -4.225277 3.774370 0.193957
v -4.225277 4.052949 0.193957
v -4.225277 4.052949 -0.189025
v -4.225277 3.774370 -0.189025
v -4.186922 3.774370 -0.268965
v -4.186922 4.052949 -0.268965
v -3.557883 4.052949 -0.268965
v -3.557883 3.774370 -0.268966
v -4.186922 3.756482 0.193956
v -4.186922 3.761721 0.250483
v -4.209066 3.764042 0.240110
v -4.214043 3.761721 0.193957
v -4.186922 3.774370 0.273897
v -4.214043 3.774370 0.250483
v -4.209066 3.764042 0.240110
v -4.186922 3.761721 0.250483
v -4.225277 3.774370 0.193957
v -4.214043 3.761721 0.193957
v -4.209066 3.764042 0.240110
v -4.214043 3.774370 0.250483
v -4.186922 4.052948 0.273897
v -4.186922 4.065598 0.250483
v -4.209066 4.063276 0.240110
v -4.214043 4.052949 0.250483
v -4.186922 4.070837 0.193957
v -4.214043 4.065598 0.193956
v -4.209066 4.063276 0.240110
v -4.186922 4.065598 0.250483
v -4.225277 4.052949 0.193957
v -4.214043 4.052949 0.250483
v -4.209066 4.063276 0.240110
v -4.214043 4.065598 0.193956
v -4.186922 3.756482 -0.189025
v -4.214043 3.761721 -0.189025
v -4.209066 3.764042 -0.235178
v -4.186921 3.761721 -0.245551
v -4.225277 3.774370 -0.189025
v -4.214043 3.774370 -0.245551
v -4.209066 3.764042 -0.235178
v -4.214043 3.761721 -0.189025
v -4.186922 3.774370 -0.268965
v -4.186921 3.761721 -0.245551
v -4.209066 3.764042 -0.235178
v -4.214043 3.774370 -0.245551
v -4.186922 4.070837 -0.189025
v -4.186922 4.065598 -0.245551
v -4.209066 4.063276 -0.235178
v -4.214043 4.065598 -0.189025
v -4.186922 4.052949 -0.268965
v -4.214043 4.052949 -0.245551
v -4.209066 4.063276 -0.235178
v -4.186922 4.065598 -0.245551
v -4.225277 4.052949 -0.189025
v -4.214043 4.065598 -0.189025
v -4.209066 4.063276 -0.235178
v -4.214043 4.052949 -0.245551
v -3.557883 3.756482 0.193956
v -3.530761 3.761721 0.193956
v -3.535738 3.764042 0.240110
v -3.557884 3.761721 0.250483
v -3.519527 3.774370 0.193956
v -3.530761 3.774370 0.250483
v -3.535738 3.764042 0.240110
v -3.530761 3.761721 0.193956
v -3.557883 3.774370 0.273897
v -3.557884 3.761721 0.250483
v -3.535738 3.764042 0.240110
v -3.530761 3.774370 0.250483
v -3.557883 4.070837 0.193956
v -3.557883 4.065598 0.250483
v -3.535738 4.063276 0.240110
v -3.530761 4.065598 0.193956
v -3.557883 4.052948 0.273897
v -3.530761 4.052949 0.250483
v -3.535738 4.063276 0.240110
v -3.557883 4.065598 0.250483
v -3.519527 4.052949 0.193956
v -3.530761 4.065598 0.193956
v -3.535738 4.063276 0.240110
v -3.530761 4.052949 0.250483
v -3.557883 3.756482 -0.189025
v -3.557883 3.761721 -0.245551
v -3.535738 3.764042 -0.235178
v -3.530761 3.761721 -0.189025
v -3.557883 3.774370 -0.268966
v -3.530761 3.774370 -0.245551
v -3.535738 3.764042 -0.235178
v -3.557883 3.761721 -0.245551
v -3.519527 3.774370 -0.189025
v -3.530761 3.761721 -0.189025
v -3.535738 3.764042 -0.235178
v -3.530761 3.774370 -0.245551
v -3.557883 4.070837 -0.189025
v -3.530761 4.065598 -0.189025
v -3.535738 4.063276 -0.235178
v -3.557884 4.065598 -0.245551
v -3.519527 4.052949 -0.189025
v -3.530761 4.052949 -0.245551
v -3.535738 4.063276 -0.235178
v -3.530761 4.065598 -0.189025
v -3.557883 4.052949 -0.268965
v -3.557884 4.065598 -0.245551
v -3.535738 4.063276 -0.235178
v -3.530761 4.052949 -0.245551
v -4.186922 3.756482 -0.189025
v -4.186922 3.756482 0.193956
v -4.214043 3.761721 0.193957
v -4.214043 3.761721 -0.189025
v -4.214043 3.761721 -0.189025
v -4.214043 3.761721 0.193957
v -4.225277 3.774370 0.193957
v -4.225277 3.774370 -0.189025
v -4.186922 3.774370 0.273897
v -4.186922 4.052948 0.273897
v -4.214043 4.052949 0.250483
v -4.214043 3.774370 0.250483
v -4.214043 3.774370 0.250483
v -4.214043 4.052949 0.250483
v -4.225277 4.052949 0.193957
v -4.225277 3.774370 0.193957
v -4.186922 4.070837 0.193957
v -4.186922 4.070837 -0.189025
v -4.214043 4.065598 -0.189025
v -4.214043 4.065598 0.193956
v -4.214043 4.065598 0.193956
v -4.214043 4.065598 -0.189025
v -4.225277 4.052949 -0.189025
v -4.225277 4.052949 0.193957
v -4.186922 4.052949 -0.268965
v -4.186922 3.774370 -0.268965
v -4.214043 3.774370 -0.245551
v -4.214043 4.052949 -0.245551
v -4.214043 4.052949 -0.245551
v -4.214043 3.774370 -0.245551
v -4.225277 3.774370 -0.189025
v -4.225277 4.052949 -0.189025
v -3.557883 3.756482 -0.189025
v -4.186922 3.756482 -0.189025
v -4.186921 3.761721 -0.245551
v -3.557883 3.761721 -0.245551
v -3.557883 3.761721 -0.245551
v -4.186921 3.761721 -0.245551
v -4.186922 3.774370 -0.268965
v -3.557883 3.774370 -0.268966
v -4.186922 4.070837 -0.189025
v -3.557883 4.070837 -0.189025
v -3.557884 4.065598 -0.245551
v -4.186922 4.065598 -0.245551
v -4.186922 4.065598 -0.245551
v -3.557884 4.065598 -0.245551
v -3.557883 4.052949 -0.268965
v -4.186922 4.052949 -0.268965
v -3.519527 4.052949 -0.189025
v -3.519527 3.774370 -0.189025
v -3.530761 3.774370 -0.245551
v -3.530761 4.052949 -0.245551
v -3.530761 4.052949 -0.245551
v -3.530761 3.774370 -0.245551
v -3.557883 3.774370 -0.268966
v -3.557883 4.052949 -0.268965
v -3.557883 3.756482 0.193956
v -3.557883 3.756482 -0.189025
v -3.530761 3.761721 -0.189025
v -3.530761 3.761721 0.193956
v -3.530761 3.761721 0.193956
v -3.530761 3.761721 -0.189025
v -3.519527 3.774370 -0.189025
v -3.519527 3.774370 0.193956
v -3.557883 4.070837 -0.189025
v -3.557883 4.070837 0.193956
v -3.530761 4.065598 0.193956
v -3.530761 4.065598 -0.189025
v -3.530761 4.065598 -0.189025
v -3.530761 4.065598 0.193956
v -3.519527 4.052949 0.193956
v -3.519527 4.052949 -0.189025
v -3.557883 4.052948 0.273897
v -3.557883 3.774370 0.273897
v -3.530761 3.774370 0.250483
v -3.530761 4.052949 0.250483
v -3.530761 4.052949 0.250483
v -3.530761 3.774370 0.250483
v -3.519527 3.774370 0.193956
v -3.519527 4.052949 0.193956
v -4.186922 3.756482 0.193956
v -3.557883 3.756482 0.193956
v -3.557884 3.761721 0.250483
v -4.186922 3.761721 0.250483
v -4.186922 3.761721 0.250483
v -3.557884 3.761721 0.250483
v -3.557883 3.774370 0.273897
v -4.186922 3.774370 0.273897
v -3.557883 4.070837 0.193956
v -4.186922 4.070837 0.193957
v -4.186922 4.065598 0.250483
v -3.557883 4.065598 0.250483
v -3.557883 4.065598 0.250483
v -4.186922 4.065598 0.250483
v -4.186922 4.052948 0.273897
v -3.557883 4.052948 0.273897
v -4.186922 3.756482 -0.189025
v -3.557883 3.756482 -0.189025
v -3.557883 3.756482 0.193956
v -4.186922 3.756482 0.193956
v -2.146383 3.774370 0.273897
v -2.146383 4.052948 0.273897
v -2.775420 4.052948 0.273897
v -2.775420 3.774370 0.273897
v -2.108026 3.774370 -0.189025
v -2.108026 4.052949 -0.189025
v -2.108026 4.052949 0.193956
v -2.108026 3.774370 0.193956
v -2.146383 4.070837 -0.189025
v -2.775420 4.070837 -0.189025
v -2.775420 4.070837 0.193956
v -2.146383 4.070837 0.193956
v -2.813777 3.774370 0.193956
v -2.813777 4.052949 0.193956
v -2.813777 4.052949 -0.189025
v -2.813777 3.774370 -0.189025
v -2.775420 3.774370 -0.268966
v -2.775420 4.052949 -0.268965
v -2.146383 4.052949 -0.268965
v -2.146383 3.774370 -0.268966
v -2.775420 3.756482 0.193956
v -2.775420 3.761721 0.250483
v -2.797566 3.764042 0.240110
v -2.802542 3.761721 0.193956
v -2.775420 3.774370 0.273897
v -2.802542 3.774370 0.250483
v -2.797566 3.764042 0.240110
v -2.775420 3.761721 0.250483
v -2.813777 3.774370 0.193956
v -2.802542 3.761721 0.193956
v -2.797566 3.764042 0.240110
v -2.802542 3.774370 0.250483
v -2.775420 4.052948 0.273897
v -2.775420 4.065598 0.250483
v -2.797566 4.063276 0.240110
v -2.802542 4.052949 0.250483
v -2.775420 4.070837 0.193956
v -2.802542 4.065598 0.193956
v -2.797566 4.063276 0.240110
v -2.775420 4.065598 0.250483
v -2.813777 4.052949 0.193956
v -2.802542 4.052949 0.250483
v -2.797566 4.063276 0.240110
v -2.802542 4.065598 0.193956
v -2.775420 3.756482 -0.189025
v -2.802542 3.761721 -0.189025
v -2.797566 3.764042 -0.235178
v -2.775420 3.761721 -0.245551
v -2.813777 3.774370 -0.189025
v -2.802542 3.774370 -0.245551
v -2.797566 3.764042 -0.235178
v -2.802542 3.761721 -0.189025
v -2.775420 3.774370 -0.268966
v -2.775420 3.761721 -0.245551
v -2.797566 3.764042 -0.235178
v -2.802542 3.774370 -0.245551
v -2.775420 4.070837 -0.189025
v -2.775420 4.065598 -0.245551
v -2.797566 4.063276 -0.235179
v -2.802542 4.065598 -0.189025
v -2.775420 4.052949 -0.268965
v -2.802542 4.052949 -0.245551
v -2.797566 4.063276 -0.235179
v -2.775420 4.065598 -0.245551
v -2.813777 4.052949 -0.189025
v -2.802542 4.065598 -0.189025
v -2.797566 4.063276 -0.235179
v -2.802542 4.052949 -0.245551
v -2.146383 3.756482 0.193956
v -2.119260 3.761721 0.193956
v -2.124236 3.764042 0.240110
v -2.146383 3.761721 0.250483
v -2.108026 3.774370 0.193956
v -2.119260 3.774370 0.250483
v -2.124236 3.764042 0.240110
v -2.119260 3.761721 0.193956
v -2.146383 3.774370 0.273897
v -2.146383 3.761721 0.250483
v -2.124236 3.764042 0.240110
v -2.119260 3.774370 0.250483
v -2.146383 4.070837 0.193956
v -2.146383 4.065598 0.250483
v -2.124236 4.063276 0.240110
v -2.119260 4.065598 0.193956
v -2.146383 4.052948 0.273897
v -2.119260 4.052949 0.250483
v -2.124236 4.063276 0.240110
v -2.146383 4.065598 0.250483
v -2.108026 4.052949 0.193956
v -2.119260 4.065598 0.193956
v -2.124236 4.063276 0.240110
v -2.119260 4.052949 0.250483
v -2.146383 3.756482 -0.189025
v -2.146383 3.761721 -0.245551
v -2.124236 3.764042 -0.235178
v -2.119260 3.761721 -0.189025
v -2.146383 3.774370 -0.268966
v -2.119260 3.774370 -0.245552
v -2.124236 3.764042 -0.235178
v -2.146383 3.761721 -0.245551
v -2.108026 3.774370 -0.189025
v -2.119260 3.761721 -0.189025
v -2.124236 3.764042 -0.235178
v -2.119260 3.774370 -0.245552
v -2.146383 4.070837 -0.189025
v -2.119260 4.065598 -0.189025
v -2.124236 4.063276 -0.235179
v -2.146383 4.065598 -0.245551
v -2.108026 4.052949 -0.189025
v -2.119260 4.052949 -0.245551
v -2.124236 4.063276 -0.235179
v -2.119260 4.065598 -0.189025
v -2.146383 4.052949 -0.268965
v -2.146383 4.065598 -0.245551
v -2.124236 4.063276 -0.235179
v -2.119260 4.052949 -0.245551
v -2.775420 3.756482 -0.189025
v -2.775420 3.756482 0.193956
v -2.802542 3.761721 0.193956
v -2.802542 3.761721 -0.189025
v -2.802542 3.761721 -0.189025
v -2.802542 3.761721 0.193956
v -2.813777 3.774370 0.193956
v -2.813777 3.774370 -0.189025
v -2.775420 3.774370 0.273897
v -2.775420 4.052948 0.273897
v -2.802542 4.052949 0.250483
v -2.802542 3.774370 0.250483
v -2.802542 3.774370 0.250483
v -2.802542 4.052949 0.250483
v -2.813777 4.052949 0.193956
v -2.813777 3.774370 0.193956
v -2.775420 4.070837 0.193956
v -2.775420 4.070837 -0.189025
v -2.802542 4.065598 -0.189025
v -2.802542 4.065598 0.193956
v -2.802542 4.065598 0.193956
v -2.802542 4.065598 -0.189025
v -2.813777 4.052949 -0.189025
v -2.813777 4.052949 0.193956
v -2.775420 4.052949 -0.268965
v -2.775420 3.774370 -0.268966
v -2.802542 3.774370 -0.245551
v -2.802542 4.052949 -0.245551
v -2.802542 4.052949 -0.245551
v -2.802542 3.774370 -0.245551
v -2.813777 3.774370 -0.189025
v -2.813777 4.052949 -0.189025
v -2.146383 3.756482 -0.189025
v -2.775420 3.756482 -0.189025
v -2.775420 3.761721 -0.245551
v -2.146383 3.761721 -0.245551
v -2.146383 3.761721 -0.245551
v -2.775420 3.761721 -0.245551
v -2.775420 3.774370 -0.268966
v -2.146383 3.774370 -0.268966
v -2.775420 4.070837 -0.189025
v -2.146383 4.070837 -0.189025
v -2.146383 4.065598 -0.245551
v -2.775420 4.065598 -0.245551
v -2.775420 4.065598 -0.245551
v -2.146383 4.065598 -0.245551
v -2.146383 4.052949 -0.268965
v -2.775420 4.052949 -0.268965
v -2.108026 4.052949 -0.189025
v -2.108026 3.774370 -0.189025
v -2.119260 3.774370 -0.245552
v -2.119260 4.052949 -0.245551
v -2.119260 4.052949 -0.245551
v -2.119260 3.774370 -0.245552
v -2.146383 3.774370 -0.268966
v -2.146383 4.052949 -0.268965
v -2.146383 3.756482 0.193956
v -2.146383 3.756482 -0.189025
v -2.119260 3.761721 -0.189025
v -2.119260 3.761721 0.193956
v -2.119260 3.761721 0.193956
v -2.119260 3.761721 -0.189025
v -2.108026 3.774370 -0.189025
v -2.108026 3.774370 0.193956
v -2.146383 4.070837 -0.189025
v -2.146383 4.070837 0.193956
v -2.119260 4.065598 0.193956
v -2.119260 4.065598 -0.189025
v -2.119260 4.065598 -0.189025
v -2.119260 4.065598 0.193956
v -2.108026 4.052949 0.193956
v -2.108026 4.052949 -0.189025
v -2.146383 4.052948 0.273897
v -2.146383 3.774370 0.273897
v -2.119260 3.774370 0.250483
v -2.119260 4.052949 0.250483
v -2.119260 4.052949 0.250483
v -2.119260 3.774370 0.250483
v -2.108026 3.774370 0.193956
v -2.108026 4.052949 0.193956
v -2.775420 3.756482 0.193956
v -2.146383 3.756482 0.193956
v -2.146383 3.761721 0.250483
v -2.775420 3.761721 0.250483
v -2.775420 3.761721 0.250483
v -2.146383 3.761721 0.250483
v -2.146383 3.774370 0.273897
v -2.775420 3.774370 0.273897
v -2.146383 4.070837 0.193956
v -2.775420 4.070837 0.193956
v -2.775420 4.065598 0.250483
v -2.146383 4.065598 0.250483
v -2.146383 4.065598 0.250483
v -2.775420 4.065598 0.250483
v -2.775420 4.052948 0.273897
v -2.146383 4.052948 0.273897
v -2.775420 3.756482 -0.189025
v -2.146383 3.756482 -0.189025
v -2.146383 3.756482 0.193956
v -2.775420 3.756482 0.193956
v -0.734882 3.774370 0.273897
v -0.734882 4.052948 0.273897
v -1.363920 4.052948 0.273897
v -1.363920 3.774370 0.273897
v -0.696525 3.774370 -0.189025
v -0.696525 4.052949 -0.189025
v -0.696525 4.052949 0.193956
v -0.696525 3.774370 0.193956
v -0.734882 4.070837 -0.189025
v -1.363920 4.070837 -0.189025
v -1.363920 4.070837 0.193956
v -0.734882 4.070837 0.193956
v -1.402277 3.774370 0.193956
v -1.402277 4.052949 0.193956
v -1.402277 4.052949 -0.189025
v -1.402277 3.774370 -0.189025
v -1.363920 3.774370 -0.268966
v -1.363920 4.052949 -0.268965
v -0.734882 4.052949 -0.268965
v -0.734882 3.774370 -0.268966
v -1.363920 3.756482 0.193956
v -1.363920 3.761721 0.250483
v -1.386065 3.764042 0.240110
v -1.391041 3.761721 0.193956
v -1.363920 3.774370 0.273897
v -1.391041 3.774370 0.250483
v -1.386065 3.764042 0.240110
v -1.363920 3.761721 0.250483
v -1.402277 3.774370 0.193956
v -1.391041 3.761721 0.193956
v -1.386065 3.764042 0.240110
v -1.391041 3.774370 0.250483
v -1.363920 4.052948 0.273897
v -1.363920 4.065598 0.250483
v -1.386065 4.063276 0.240110
v -1.391041 4.052949 0.250483
v -1.363920 4.070837 0.193956
v -1.391041 4.065598 0.193956
v -1.386065 4.063276 0.240110
v -1.363920 4.065598 0.250483
v -1.402277 4.052949 0.193956
v -1.391041 4.052949 0.250483
v -1.386065 4.063276 0.240110
v -1.391041 4.065598 0.193956
v -1.363920 3.756482 -0.189025
v -1.391041 3.761721 -0.189025
v -1.386065 3.764042 -0.235178
v -1.363920 3.761721 -0.245551
v -1.402277 3.774370 -0.189025
v -1.391041 3.774370 -0.245552
v -1.386065 3.764042 -0.235178
v -1.391041 3.761721 -0.189025
v -1.363920 3.774370 -0.268966
v -1.363920 3.761721 -0.245551
v -1.386065 3.764042 -0.235178
v -1.391041 3.774370 -0.245552
v -1.363920 4.070837 -0.189025
v -1.363920 4.065598 -0.245551
v -1.386065 4.063276 -0.235179
v -1.391041 4.065598 -0.189025
v -1.363920 4.052949 -0.268965
v -1.391041 4.052949 -0.245551
v -1.386065 4.063276 -0.235179
v -1.363920 4.065598 -0.245551
v -1.402277 4.052949 -0.189025
v -1.391041 4.065598 -0.189025
v -1.386065 4.063276 -0.235179
v -1.391041 4.052949 -0.245551
v -0.734882 3.756482 0.193956
v -0.707759 3.761721 0.193956
v -0.712736 3.764042 0.240110
v -0.734882 3.761721 0.250483
v -0.696525 3.774370 0.193956
v -0.707759 3.774370 0.250483
v -0.712736 3.764042 0.240110
v -0.707759 3.761721 0.193956
v -0.734882 3.774370 0.273897
v -0.734882 3.761721 0.250483
v -0.712736 3.764042 0.240110
v -0.707759 3.774370 0.250483
v -0.734882 4.070837 0.193956
v -0.734882 4.065598 0.250483
v -0.712736 4.063276 0.240110
v -0.707759 4.065598 0.193956
v -0.734882 4.052948 0.273897
v -0.707759 4.052949 0.250483
v -0.712736 4.063276 0.240110
v -0.734882 4.065598 0.250483
v -0.696525 4.052949 0.193956
v -0.707759 4.065598 0.193956
v -0.712736 4.063276 0.240110
v -0.707759 4.052949 0.250483
v -0.734882 3.756482 -0.189025
v -0.734882 3.761721 -0.245551
v -0.712736 3.764042 -0.235179
v -0.707759 3.761721 -0.189025
v -0.734882 3.774370 -0.268966
v -0.707759 3.774370 -0.245552
v -0.712736 3.764042 -0.235179
v -0.734882 3.761721 -0.245551
v -0.696525 3.774370 -0.189025
v -0.707759 3.761721 -0.189025
v -0.712736 3.764042 -0.235179
v -0.707759 3.774370 -0.245552
v -0.734882 4.070837 -0.189025
v -0.707759 4.065598 -0.189025
v -0.712736 4.063276 -0.235179
v -0.734882 4.065598 -0.245551
v -0.696525 4.052949 -0.189025
v -0.707759 4.052949 -0.245551
v -0.712736 4.063276 -0.235179
v -0.707759 4.065598 -0.189025
v -0.734882 4.052949 -0.268965
v -0.734882 4.065598 -0.245551
v -0.712736 4.063276 -0.235179
v -0.707759 4.052949 -0.245551
v -1.363920 3.756482 -0.189025
v -1.363920 3.756482 0.193956
v -1.391041 3.761721 0.193956
v -1.391041 3.761721 -0.189025
v -1.391041 3.761721 -0.189025
v -1.391041 3.761721 0.193956
v -1.402277 3.774370 0.193956
v -1.402277 3.774370 -0.189025
v -1.363920 3.774370 0.273897
v -1.363920 4.052948 0.273897
v -1.391041 4.052949 0.250483
v -1.391041 3.774370 0.250483
v -1.391041 3.774370 0.250483
v -1.391041 4.052949 0.250483
v -1.402277 4.052949 0.193956
v -1.402277 3.774370 0.193956
v -1.363920 4.070837 0.193956
v -1.363920 4.070837 -0.189025
v -1.391041 4.065598 -0.189025
v -1.391041 4.065598 0.193956
v -1.391041 4.065598 0.193956
v -1.391041 4.065598 -0.189025
v -1.402277 4.052949 -0.189025
v -1.402277 4.052949 0.193956
v -1.363920 4.052949 -0.268965
v -1.363920 3.774370 -0.268966
v -1.391041 3.774370 -0.245552
v -1.391041 4.052949 -0.245551
v -1.391041 4.052949 -0.245551
v -1.391041 3.774370 -0.245552
v -1.402277 3.774370 -0.189025
v -1.402277 4.052949 -0.189025
v -0.734882 3.756482 -0.189025
v -1.363920 3.756482 -0.189025
v -1.363920 3.761721 -0.245551
v -0.734882 3.761721 -0.245551
v -0.734882 3.761721 -0.245551
v -1.363920 3.761721 -0.245551
v -1.363920 3.774370 -0.268966
v -0.734882 3.774370 -0.268966
v -1.363920 4.070837 -0.189025
v -0.734882 4.070837 -0.189025
v -0.734882 4.065598 -0.245551
v -1.363920 4.065598 -0.245551
v -1.363920 4.065598 -0.245551
v -0.734882 4.065598 -0.245551
v -0.734882 4.052949 -0.268965
v -1.363920 4.052949 -0.268965
v -0.696525 4.052949 -0.189025
v -0.696525 3.774370 -0.189025
v -0.707759 3.774370 -0.245552
v -0.707759 4.052949 -0.245551
v -0.707759 4.052949 -0.245551
v -0.707759 3.774370 -0.245552
v -0.734882 3.774370 -0.268966
v -0.734882 4.052949 -0.268965
v -0.734882 3.756482 0.193956
v -0.734882 3.756482 -0.189025
v -0.707759 3.761721 -0.189025
v -0.707759 3.761721 0.193956
v -0.707759 3.761721 0.193956
v -0.707759 3.761721 -0.189025
v -0.696525 3.774370 -0.189025
v -0.696525 3.774370 0.193956
v -0.734882 4.070837 -0.189025
v -0.734882 4.070837 0.193956
v -0.707759 4.065598 0.193956
v -0.707759 4.065598 -0.189025
v -0.707759 4.065598 -0.189025
v -0.707759 4.065598 0.193956
v -0.696525 4.052949 0.193956
v -0.696525 4.052949 -0.189025
v -0.734882 4.052948 0.273897
v -0.734882 3.774370 0.273897
v -0.707759 3.774370 0.250483
v -0.707759 4.052949 0.250483
v -0.707759 4.052949 0.250483
v -0.707759 3.774370 0.250483
v -0.696525 3.774370 0.193956
v -0.696525 4.052949 0.193956
v -1.363920 3.756482 0.193956
v -0.734882 3.756482 0.193956
v -0.734882 3.761721 0.250483
v -1.363920 3.761721 0.250483
v -1.363920 3.761721 0.250483
v -0.734882 3.761721 0.250483
v -0.734882 3.774370 0.273897
v -1.363920 3.774370 0.273897
v -0.734882 4.070837 0.193956
v -1.363920 4.070837 0.193956
v -1.363920 4.065598 0.250483
v -0.734882 4.065598 0.250483
v -0.734882 4.065598 0.250483
v -1.363920 4.065598 0.250483
v -1.363920 4.052948 0.273897
v -0.734882 4.052948 0.273897
v -1.363920 3.756482 -0.189025
v -0.734882 3.756482 -0.189025
v -0.734882 3.756482 0.193956
v -1.363920 3.756482 0.193956
v -11.923216 3.755417 -0.449886
v -11.961967 3.489769 -0.451153
v -11.961967 3.489769 0.458538
v -11.923216 3.755416 0.457271
v 0.024564 3.489769 -0.451154
v 0.024564 3.489769 0.458536
v -0.014186 3.487334 0.415016
v -0.014186 3.487334 -0.407633
v -11.923216 0.101222 -0.407633
v -11.923216 2.023624 -0.407632
v -0.014186 2.023624 -0.407634
v -0.014186 0.101222 -0.407634
v -0.014186 0.101222 -0.407634
v -0.014186 2.023624 -0.407634
v -0.014186 2.023624 0.415016
v -0.014186 0.101222 0.415016
v -11.923216 -0.626209 -0.407633
v -11.923216 -0.125734 -0.407633
v -0.014186 -0.125734 -0.407634
v -0.014186 -0.626209 -0.407634
v -11.923216 2.263292 -0.407632
v -11.923216 2.263291 0.415017
v -11.923216 3.487334 0.415017
v -11.923216 3.487334 -0.407632
v -11.923216 2.263292 -0.407632
v -0.014186 2.263292 -0.407634
v -0.086827 2.263292 -0.356985
v -11.850575 2.263292 -0.356984
v -11.923216 0.101222 0.415017
v -0.014186 0.101222 0.415016
v -0.014186 2.023624 0.415016
v -11.923216 2.023624 0.415017
v -11.923216 0.101222 -0.407633
v -11.857107 0.101222 -0.356984
v -11.857107 0.101222 0.364369
v -11.923216 0.101222 0.415017
v -11.923216 -0.626209 0.415017
v -0.014186 -0.626209 0.415016
v -0.014186 -0.125734 0.415016
v -11.923216 -0.125734 0.415017
v -0.086827 -0.125734 -0.356985
v -0.086827 0.101222 -0.356985
v -0.086827 0.101222 0.364368
v -0.086827 -0.125734 0.364368
v -11.923216 -0.626209 -0.407633
v -0.014186 -0.626209 -0.407634
v -0.014186 -0.626209 0.415016
v -11.923216 -0.626209 0.415017
v -0.014186 0.101222 0.415016
v -11.923216 0.101222 0.415017
v -11.857107 0.101222 0.364369
v -0.086827 0.101222 0.364368
v -11.923216 2.263291 0.415017
v -0.014186 2.263292 0.415016
v -0.014186 3.487334 0.415016
v -11.923216 3.487334 0.415017
v -0.014186 0.101222 -0.407634
v -0.014186 0.101222 0.415016
v -0.086827 0.101222 0.364368
v -0.086827 0.101222 -0.356985
v -0.014186 2.263292 -0.407634
v -0.014186 2.263292 0.415016
v -0.086827 2.263292 0.364368
v -0.086827 2.263292 -0.356985
v -0.014186 3.755417 -0.449887
v -11.923216 3.755417 -0.449886
v -11.923216 3.755416 0.457271
v -0.014186 3.755416 0.457269
v -11.923216 2.023624 -0.407632
v -11.923216 0.101222 -0.407633
v -11.923216 0.101222 0.415017
v -11.923216 2.023624 0.415017
v -11.923216 2.263291 0.415017
v -11.923216 2.263292 -0.407632
v -11.850575 2.263292 -0.356984
v -11.850575 2.263292 0.364369
v -11.923216 2.023624 -0.407632
v -11.923216 2.023624 0.415017
v -11.850575 2.023624 0.364369
v -11.850575 2.023624 -0.356984
v -0.014186 2.023624 0.415016
v -0.014186 2.023624 -0.407634
v -0.086827 2.023624 -0.356985
v -0.086827 2.023624 0.364368
v -11.923216 0.101222 -0.407633
v -0.014186 0.101222 -0.407634
v -0.086827 0.101222 -0.356985
v -11.857107 0.101222 -0.356984
v -0.014186 -0.626209 -0.407634
v -0.014186 -0.125734 -0.407634
v -0.014186 -0.125734 0.415016
v -0.014186 -0.626209 0.415016
v -11.923216 -0.125734 -0.407633
v -11.923216 -0.626209 -0.407633
v -11.923216 -0.626209 0.415017
v -11.923216 -0.125734 0.415017
v -11.923216 2.263292 -0.407632
v -11.923216 3.487334 -0.407632
v -0.014186 3.487334 -0.407633
v -0.014186 2.263292 -0.407634
v -11.850575 2.023624 -0.356984
v -11.850575 2.263292 -0.356984
v -0.086827 2.263292 -0.356985
v -0.086827 2.023624 -0.356985
v -11.857107 -0.125734 -0.356984
v -11.857107 0.101222 -0.356984
v -0.086827 0.101222 -0.356985
v -0.086827 -0.125734 -0.356985
v -11.850575 2.023624 0.364369
v -0.086827 2.023624 0.364368
v -0.086827 2.263292 0.364368
v -11.850575 2.263292 0.364369
v -11.857107 -0.125734 0.364369
v -0.086827 -0.125734 0.364368
v -0.086827 0.101222 0.364368
v -11.857107 0.101222 0.364369
v -0.014186 -0.125734 0.415016
v -0.014186 -0.125734 -0.407634
v -0.086827 -0.125734 -0.356985
v -0.086827 -0.125734 0.364368
v -0.086827 2.023624 -0.356985
v -0.086827 2.263292 -0.356985
v -0.086827 2.263292 0.364368
v -0.086827 2.023624 0.364368
v -11.857107 0.101222 -0.356984
v -11.857107 -0.125734 -0.356984
v -11.857107 -0.125734 0.364369
v -11.857107 0.101222 0.364369
v -11.850575 2.263292 -0.356984
v -11.850575 2.023624 -0.356984
v -11.850575 2.023624 0.364369
v -11.850575 2.263292 0.364369
v -0.014186 2.263292 0.415016
v -11.923216 2.263291 0.415017
v -11.850575 2.263292 0.364369
v -0.086827 2.263292 0.364368
v -0.014186 -0.125734 -0.407634
v -11.923216 -0.125734 -0.407633
v -11.857107 -0.125734 -0.356984
v -0.086827 -0.125734 -0.356985
v -11.923216 -0.125734 0.415017
v -0.014186 -0.125734 0.415016
v -0.086827 -0.125734 0.364368
v -11.857107 -0.125734 0.364369
v -0.014186 2.023624 -0.407634
v -11.923216 2.023624 -0.407632
v -11.850575 2.023624 -0.356984
v -0.086827 2.023624 -0.356985
v -11.923216 2.023624 0.415017
v -0.014186 2.023624 0.415016
v -0.086827 2.023624 0.364368
v -11.850575 2.023624 0.364369
v -11.961967 3.489769 -0.451153
v -11.923216 3.755417 -0.449886
v -0.014186 3.755417 -0.449887
v 0.024564 3.489769 -0.451154
v -0.014186 2.263292 -0.407634
v -0.014186 3.487334 -0.407633
v -0.014186 3.487334 0.415016
v -0.014186 2.263292 0.415016
v -11.961967 3.489769 0.458538
v 0.024564 3.489769 0.458536
v -0.014186 3.755416 0.457269
v -11.923216 3.755416 0.457271
v -11.923216 3.487334 -0.407632
v -11.923216 3.487334 0.415017
v -11.961967 3.489769 0.458538
v -11.961967 3.489769 -0.451153
v 0.024564 3.489769 -0.451154
v -0.014186 3.755417 -0.449887
v -0.014186 3.755416 0.457269
v 0.024564 3.489769 0.458536
v 0.024564 3.489769 0.458536
v -11.961967 3.489769 0.458538
v -11.923216 3.487334 0.415017
v -0.014186 3.487334 0.415016
v -11.961967 3.489769 -0.451153
v 0.024564 3.489769 -0.451154
v -0.014186 3.487334 -0.407633
v -11.923216 3.487334 -0.407632
v -11.923216 -0.125734 0.415017
v -11.857107 -0.125734 0.364369
v -11.857107 -0.125734 -0.356984
v -11.923216 -0.125734 -0.407633
vn -0.0000 -0.0000 1.0000
vn 1.0000 -0.0000 -0.0000
vn -0.0000 1.0000 -0.0000
vn -1.0000 -0.0000 -0.0000
vn -0.0000 -0.0000 -1.0000
vn -0.1677 -0.9825 0.0805
vn -0.3697 -0.7927 0.4846
vn -0.3697 -0.7928 0.4846
vn -0.7792 -0.6116 0.1368
vn -0.7792 -0.6116 0.1369
vn -0.3697 0.7927 0.4846
vn -0.3697 0.7928 0.4846
vn -0.1677 0.9825 0.0805
vn -0.7792 0.6116 0.1368
vn -0.7793 0.6116 0.1369
vn -0.7792 0.6116 0.1369
vn -0.1677 -0.9825 -0.0805
vn -0.7792 -0.6116 -0.1368
vn -0.7793 -0.6116 -0.1369
vn -0.7792 -0.6116 -0.1369
vn -0.3697 -0.7928 -0.4846
vn -0.3697 -0.7927 -0.4846
vn -0.1677 0.9825 -0.0805
vn -0.3697 0.7927 -0.4846
vn -0.3697 0.7928 -0.4846
vn -0.7792 0.6116 -0.1369
vn -0.7792 0.6116 -0.1368
vn -0.7793 0.6116 -0.1369
vn 0.1677 -0.9825 0.0805
vn 0.7792 -0.6116 0.1368
vn 0.7792 -0.6116 0.1369
vn 0.3697 -0.7927 0.4846
vn 0.3697 -0.7928 0.4846
vn 0.1677 0.9825 0.0805
vn 0.3697 0.7927 0.4846
vn 0.3697 0.7928 0.4846
vn 0.7792 0.6116 0.1368
vn 0.7792 0.6116 0.1369
vn 0.7793 0.6116 0.1369
vn 0.1677 -0.9825 -0.0805
vn 0.3697 -0.7928 -0.4846
vn 0.3697 -0.7927 -0.4846
vn 0.7792 -0.6116 -0.1368
vn 0.7792 -0.6116 -0.1369
vn 0.1677 0.9825 -0.0805
vn 0.7792 0.6116 -0.1369
vn 0.7793 0.6116 -0.1369
vn 0.7792 0.6116 -0.1368
vn 0.3697 0.7927 -0.4846
vn 0.3697 0.7928 -0.4846
vn -0.1897 -0.9818 -0.0000
vn -0.1897 -0.9819 -0.0000
vn -0.7477 -0.6641 -0.0000
vn -0.6535 -0.0000 0.7569
vn -0.9808 -0.0000 0.1949
vn -0.1897 0.9818 -0.0000
vn -0.7477 0.6641 -0.0000
vn -0.6535 -0.0000 -0.7570
vn -0.6535 -0.0000 -0.7569
vn -0.9808 -0.0000 -0.1949
vn -0.0000 -0.9957 -0.0923
vn -0.0000 -0.8798 -0.4753
vn -0.0000 0.9957 -0.0923
vn -0.0000 0.8798 -0.4753
vn 0.9808 -0.0000 -0.1949
vn 0.6535 -0.0000 -0.7569
vn 0.1897 -0.9819 -0.0000
vn 0.1897 -0.9818 -0.0000
vn 0.7477 -0.6641 -0.0000
vn 0.1897 0.9818 -0.0000
vn 0.7477 0.6641 -0.0000
vn 0.6535 -0.0000 0.7569
vn 0.9808 -0.0000 0.1949
vn -0.0000 -0.9957 0.0923
vn -0.0000 -0.8798 0.4753
vn -0.0000 0.9957 0.0923
vn -0.0000 0.8798 0.4753
vn -0.0000 -1.0000 -0.0000
vn -0.3697 0.7927 0.4847
vn -0.1677 -0.9826 -0.0805
vn 0.7793 -0.6116 0.1369
vn 0.3697 -0.7927 0.4847
vn 0.3697 0.7927 0.4847
vn 0.3697 0.7927 -0.4847
vn -0.6535 -0.0000 0.7570
vn 0.6535 -0.0000 0.7570
vn -0.7793 -0.6116 0.1369
vn 0.1678 0.9825 0.0805
vn 0.7793 -0.6116 -0.1369
vn -0.1897 0.9819 -0.0000
vn 0.1677 -0.9826 0.0805
vn 0.7793 0.6116 0.1368
vn 0.1677 -0.9826 -0.0805
vn -0.7476 -0.6641 -0.0000
vn -0.9808 -0.0000 0.1950
vn -0.7476 0.6641 -0.0000
vn -0.9808 -0.0000 -0.1950
vn 0.6535 -0.0000 -0.7570
vn 0.1896 -0.9819 -0.0000
vn 0.1897 0.9819 -0.0000
vn 0.7793 -0.6116 0.1368
vn 0.7793 0.6115 0.1369
vn 0.7793 -0.6116 -0.1368
vn 0.1677 0.9826 -0.0805
vn -0.9895 0.1443 -0.0000
vn 0.0627 -0.9980 -0.0000
vn -0.0000 0.0048 -1.0000
vn -0.0000 0.0048 1.0000
vn -0.0627 -0.9980 -0.0000
vn 0.9895 0.1443 -0.0000
vn -0.0000 -0.9984 0.0559
vn -0.0000 -0.9984 -0.0559
vt 0.595568 0.310112
vt 0.396971 0.313686
vt 0.399050 0.522721
vt 0.597647 0.519147
vt 0.314000 0.097059
vt 0.317570 0.295802
vt 0.377005 0.295559
vt 0.376258 0.096590
vt 0.317628 0.314887
vt 0.319785 0.522418
vt 0.379184 0.522175
vt 0.377027 0.314644
vt 0.382812 0.740003
vt 0.379242 0.541260
vt 0.319807 0.541502
vt 0.320554 0.740472
vt 0.102628 0.521185
vt 0.299857 0.523273
vt 0.297796 0.314423
vt 0.101609 0.322717
vt 0.023517 0.523843
vt 0.013770 0.524465
vt 0.015373 0.532353
vt 0.023323 0.533612
vt 0.598254 0.529068
vt 0.606189 0.527478
vt 0.607507 0.519492
vt 0.383348 0.750100
vt 0.391438 0.748503
vt 0.392787 0.740367
vt 0.389129 0.523307
vt 0.390717 0.531266
vt 0.398726 0.532583
vt 0.378827 0.531641
vt 0.386963 0.531593
vt 0.389352 0.539906
vt 0.083765 0.521280
vt 0.085172 0.531263
vt 0.093317 0.528850
vt 0.093255 0.520835
vt 0.310518 0.740994
vt 0.312046 0.749074
vt 0.320147 0.750493
vt 0.101438 0.531026
vt 0.309701 0.523721
vt 0.312045 0.532042
vt 0.320181 0.532021
vt 0.300283 0.533176
vt 0.308266 0.531712
vt 0.309839 0.540326
vt 0.022900 0.320565
vt 0.022701 0.310756
vt 0.014772 0.312078
vt 0.013242 0.319970
vt 0.386293 0.096067
vt 0.384765 0.087987
vt 0.376665 0.086568
vt 0.605489 0.309526
vt 0.603900 0.301567
vt 0.595892 0.300250
vt 0.387111 0.313340
vt 0.384767 0.305019
vt 0.376631 0.305041
vt 0.396364 0.303765
vt 0.388429 0.305355
vt 0.386973 0.296736
vt 0.082788 0.322770
vt 0.092141 0.323166
vt 0.092100 0.315212
vt 0.084071 0.313005
vt 0.100171 0.312804
vt 0.313463 0.086962
vt 0.305373 0.088558
vt 0.304024 0.096695
vt 0.317985 0.305420
vt 0.309849 0.305468
vt 0.307683 0.313755
vt 0.307460 0.297155
vt 0.306000 0.305814
vt 0.297972 0.304607
vt 0.045433 0.897681
vt 0.032890 0.897624
vt 0.032899 0.940129
vt 0.045442 0.940067
vt 0.614418 0.897500
vt 0.614426 0.940005
vt 0.616240 0.937971
vt 0.616232 0.899533
vt 0.830707 0.495532
vt 0.899004 0.509485
vt 0.902492 0.048745
vt 0.830707 0.044940
vt 0.903444 0.013814
vt 0.830707 0.013814
vt 0.781177 0.497972
vt 0.800113 0.497972
vt 0.800113 0.047383
vt 0.781178 0.047383
vt 0.930917 0.495529
vt 0.930917 0.526655
vt 0.977230 0.526655
vt 0.977230 0.495529
vt 0.721807 0.519559
vt 0.722811 0.056644
vt 0.716806 0.058627
vt 0.712283 0.516909
vt 0.830707 0.526658
vt 0.830707 0.977248
vt 0.903444 0.977248
vt 0.903444 0.526658
vt 0.657776 0.554809
vt 0.647543 0.552607
vt 0.654588 0.616063
vt 0.662863 0.614453
vt 0.781177 0.529097
vt 0.781177 0.979693
vt 0.800113 0.979693
vt 0.800113 0.529097
vt 0.634964 0.065865
vt 0.653534 0.067418
vt 0.656733 0.022279
vt 0.646685 0.021570
vt 0.750051 0.529097
vt 0.750051 0.979693
vt 0.662115 0.973899
vt 0.652089 0.965100
vt 0.930916 0.977248
vt 0.977230 0.977248
vt 0.662863 0.064543
vt 0.662066 0.020025
vt 0.719230 0.024686
vt 0.715722 0.026407
vt 0.601874 0.897562
vt 0.601883 0.939948
vt 0.720377 0.579862
vt 0.709445 0.583291
vt 0.686782 0.519416
vt 0.685196 0.580028
vt 0.694382 0.582528
vt 0.697401 0.516119
vt 0.704630 0.023521
vt 0.693977 0.055648
vt 0.699578 0.057440
vt 0.708508 0.026087
vt 0.800113 0.016258
vt 0.781178 0.016258
vt 0.977230 0.044940
vt 0.930917 0.049696
vt 0.632376 0.552454
vt 0.702013 0.972271
vt 0.711805 0.972230
vt 0.641512 0.615990
vt 0.643544 0.965104
vt 0.640983 0.018014
vt 0.626810 0.063383
vt 0.722811 0.982041
vt 0.624392 0.554068
vt 0.631384 0.613923
vt 0.633538 0.973932
vt 0.693621 0.979820
vt 0.043620 0.885269
vt 0.603682 0.885149
vt 0.977230 0.013814
vt 0.930917 0.013814
vt 0.043634 0.952480
vt 0.603696 0.952360
vt 0.031076 0.899658
vt 0.031084 0.938096
vt 0.045343 0.962105
vt 0.595037 0.962105
vt 0.601974 0.875524
vt 0.052280 0.875524
s 0
usemtl Wall.001
f 1/1/1 2/2/1 3/3/1
f 1/1/1 3/3/1 4/4/1
f 5/5/2 6/6/2 7/7/2
f 5/5/2 7/7/2 8/8/2
f 9/9/3 10/10/3 11/11/3
f 9/9/3 11/11/3 12/12/3
f 13/13/4 14/14/4 15/15/4
f 13/13/4 15/15/4 16/16/4
f 17/17/5 18/18/5 19/19/5
f 17/17/5 19/19/5 20/20/5
s 1
f 21/21/6 22/22/6 23/23/6
f 21/21/6 23/23/6 24/24/6
f 25/4/7 26/25/7 27/26/8
f 25/4/7 27/26/8 28/27/8
f 29/13/9 30/28/10 31/29/10
f 29/13/9 31/29/10 32/30/10
f 33/3/11 34/31/12 35/32/12
f 33/3/11 35/32/12 36/33/11
f 37/11/13 38/34/13 39/35/13
f 37/11/13 39/35/13 40/31/13
f 41/14/14 42/36/15 43/35/16
f 41/14/14 43/35/16 44/34/14
f 45/37/17 46/38/17 47/39/17
f 45/37/17 47/39/17 48/40/17
f 49/16/18 50/41/19 51/42/20
f 49/16/18 51/42/20 52/43/18
f 53/17/21 54/40/21 55/39/22
f 53/17/21 55/39/22 56/44/22
f 57/10/23 58/45/23 59/46/23
f 57/10/23 59/46/23 60/47/23
f 61/18/24 62/48/24 63/49/25
f 61/18/24 63/49/25 64/45/25
f 65/15/26 66/47/27 67/46/28
f 65/15/26 67/46/28 68/50/28
f 69/51/29 70/52/29 71/53/29
f 69/51/29 71/53/29 72/54/29
f 73/8/30 74/55/31 75/56/31
f 73/8/30 75/56/31 76/57/30
f 77/1/32 78/58/33 79/59/33
f 77/1/32 79/59/33 80/60/32
f 81/12/34 82/61/34 83/62/34
f 81/12/34 83/62/34 84/63/34
f 85/2/35 86/64/35 87/65/35
f 85/2/35 87/65/35 88/61/36
f 89/7/37 90/63/38 91/62/38
f 89/7/37 91/62/38 92/66/39
f 93/67/40 94/68/40 95/69/40
f 93/67/40 95/69/40 96/70/40
f 97/20/41 98/71/42 99/69/42
f 97/20/41 99/69/42 100/68/41
f 101/5/43 102/72/44 103/73/44
f 101/5/43 103/73/44 104/74/44
f 105/9/45 106/75/45 107/76/45
f 105/9/45 107/76/45 108/77/45
f 109/6/46 110/78/47 111/76/47
f 109/6/46 111/76/47 112/75/48
f 113/19/49 114/77/50 115/79/50
f 113/19/49 115/79/50 116/80/49
s 0
f 117/37/51 118/21/51 119/24/51
f 117/37/52 119/24/52 120/38/52
f 121/43/53 122/28/53 123/13/53
f 121/43/53 123/13/53 124/16/53
f 125/4/54 126/3/54 127/33/54
f 125/4/54 127/33/54 128/25/54
f 129/30/55 130/36/55 131/14/55
f 129/30/55 131/14/55 132/13/55
f 133/11/56 134/10/56 135/47/56
f 133/11/56 135/47/56 136/34/56
f 137/34/57 138/47/57 139/15/57
f 137/34/57 139/15/57 140/14/57
f 141/18/58 142/17/58 143/44/58
f 141/18/59 143/44/59 144/48/59
f 145/50/60 146/41/60 147/16/60
f 145/50/60 147/16/60 148/15/60
f 149/67/61 150/37/61 151/40/61
f 149/67/61 151/40/61 152/68/61
f 153/68/62 154/40/62 155/17/62
f 153/68/62 155/17/62 156/20/62
f 157/10/63 158/9/63 159/77/63
f 157/10/63 159/77/63 160/45/63
f 161/45/64 162/77/64 163/19/64
f 161/45/64 163/19/64 164/18/64
f 165/6/65 166/5/65 167/74/65
f 165/6/65 167/74/65 168/78/65
f 169/80/66 170/71/66 171/20/66
f 169/80/66 171/20/66 172/19/66
f 173/51/67 174/67/67 175/70/67
f 173/51/68 175/70/68 176/52/68
f 177/57/69 178/72/69 179/5/69
f 177/57/69 179/5/69 180/8/69
f 181/9/70 182/12/70 183/63/70
f 181/9/70 183/63/70 184/75/70
f 185/75/71 186/63/71 187/7/71
f 185/75/71 187/7/71 188/6/71
f 189/2/72 190/1/72 191/60/72
f 189/2/72 191/60/72 192/64/72
f 193/66/73 194/55/73 195/8/73
f 193/66/73 195/8/73 196/7/73
f 197/21/74 198/51/74 199/54/74
f 197/21/74 199/54/74 200/22/74
f 201/27/75 202/58/75 203/1/75
f 201/27/75 203/1/75 204/4/75
f 205/12/76 206/11/76 207/31/76
f 205/12/76 207/31/76 208/61/76
f 209/61/77 210/31/77 211/3/77
f 209/61/77 211/3/77 212/2/77
f 213/37/78 214/67/78 215/51/78
f 213/37/78 215/51/78 216/21/78
f 217/1/1 218/2/1 219/3/1
f 217/1/1 219/3/1 220/4/1
f 221/5/2 222/6/2 223/7/2
f 221/5/2 223/7/2 224/8/2
f 225/9/3 226/10/3 227/11/3
f 225/9/3 227/11/3 228/12/3
f 229/13/4 230/14/4 231/15/4
f 229/13/4 231/15/4 232/16/4
f 233/17/5 234/18/5 235/19/5
f 233/17/5 235/19/5 236/20/5
s 1
f 237/21/6 238/22/6 239/23/6
f 237/21/6 239/23/6 240/24/6
f 241/4/7 242/25/7 243/26/8
f 241/4/7 243/26/8 244/27/7
f 245/13/9 246/28/9 247/29/10
f 245/13/9 247/29/10 248/30/10
f 249/3/11 250/31/12 251/32/11
f 249/3/11 251/32/11 252/33/79
f 253/11/13 254/34/13 255/35/13
f 253/11/13 255/35/13 256/31/13
f 257/14/14 258/36/16 259/35/16
f 257/14/14 259/35/16 260/34/14
f 261/37/17 262/38/17 263/39/17
f 261/37/17 263/39/17 264/40/80
f 265/16/18 266/41/20 267/42/20
f 265/16/18 267/42/20 268/43/18
f 269/17/22 270/40/21 271/39/21
f 269/17/22 271/39/21 272/44/22
f 273/10/23 274/45/23 275/46/23
f 273/10/23 275/46/23 276/47/23
f 277/18/24 278/48/24 279/49/25
f 277/18/24 279/49/25 280/45/25
f 281/15/27 282/47/27 283/46/26
f 281/15/27 283/46/26 284/50/26
f 285/51/29 286/52/29 287/53/29
f 285/51/29 287/53/29 288/54/29
f 289/8/31 290/55/81 291/56/30
f 289/8/31 291/56/30 292/57/30
f 293/1/32 294/58/33 295/59/32
f 293/1/32 295/59/32 296/60/82
f 297/12/34 298/61/34 299/62/34
f 297/12/34 299/62/34 300/63/34
f 301/2/35 302/64/83 303/65/35
f 301/2/35 303/65/35 304/61/36
f 305/7/39 306/63/37 307/62/37
f 305/7/39 307/62/37 308/66/37
f 309/67/40 310/68/40 311/69/40
f 309/67/40 311/69/40 312/70/40
f 313/20/42 314/71/42 315/69/41
f 313/20/42 315/69/41 316/68/41
f 317/5/43 318/72/43 319/73/43
f 317/5/43 319/73/43 320/74/43
f 321/9/45 322/75/45 323/76/45
f 321/9/45 323/76/45 324/77/45
f 325/6/48 326/78/48 327/76/48
f 325/6/48 327/76/48 328/75/48
f 329/19/49 330/77/50 331/79/49
f 329/19/49 331/79/49 332/80/84
s 0
f 333/37/51 334/21/51 335/24/51
f 333/37/52 335/24/52 336/38/52
f 337/43/53 338/28/53 339/13/53
f 337/43/53 339/13/53 340/16/53
f 341/4/54 342/3/54 343/33/54
s 1
f 341/4/85 343/33/85 344/25/85
s 0
f 345/30/55 346/36/55 347/14/55
f 345/30/55 347/14/55 348/13/55
f 349/11/56 350/10/56 351/47/56
f 349/11/56 351/47/56 352/34/56
f 353/34/57 354/47/57 355/15/57
f 353/34/57 355/15/57 356/14/57
f 357/18/59 358/17/59 359/44/59
f 357/18/58 359/44/58 360/48/58
f 361/50/60 362/41/60 363/16/60
f 361/50/60 363/16/60 364/15/60
f 365/67/61 366/37/61 367/40/61
f 365/67/61 367/40/61 368/68/61
f 369/68/62 370/40/62 371/17/62
f 369/68/62 371/17/62 372/20/62
f 373/10/63 374/9/63 375/77/63
f 373/10/63 375/77/63 376/45/63
f 377/45/64 378/77/64 379/19/64
f 377/45/64 379/19/64 380/18/64
f 381/6/65 382/5/65 383/74/65
f 381/6/65 383/74/65 384/78/65
f 385/80/66 386/71/66 387/20/66
f 385/80/66 387/20/66 388/19/66
f 389/51/67 390/67/67 391/70/67
f 389/51/68 391/70/68 392/52/68
f 393/57/69 394/72/69 395/5/69
f 393/57/69 395/5/69 396/8/69
f 397/9/70 398/12/70 399/63/70
f 397/9/70 399/63/70 400/75/70
f 401/75/71 402/63/71 403/7/71
f 401/75/71 403/7/71 404/6/71
f 405/2/72 406/1/72 407/60/72
f 405/2/86 407/60/86 408/64/86
f 409/66/73 410/55/73 411/8/73
f 409/66/73 411/8/73 412/7/73
f 413/21/74 414/51/74 415/54/74
f 413/21/74 415/54/74 416/22/74
f 417/27/75 418/58/75 419/1/75
f 417/27/75 419/1/75 420/4/75
f 421/12/76 422/11/76 423/31/76
f 421/12/76 423/31/76 424/61/76
f 425/61/77 426/31/77 427/3/77
f 425/61/77 427/3/77 428/2/77
f 429/37/78 430/67/78 431/51/78
f 429/37/78 431/51/78 432/21/78
f 433/1/1 434/2/1 435/3/1
f 433/1/1 435/3/1 436/4/1
f 437/5/2 438/6/2 439/7/2
f 437/5/2 439/7/2 440/8/2
f 441/9/3 442/10/3 443/11/3
f 441/9/3 443/11/3 444/12/3
f 445/13/4 446/14/4 447/15/4
f 445/13/4 447/15/4 448/16/4
f 449/17/5 450/18/5 451/19/5
f 449/17/5 451/19/5 452/20/5
s 1
f 453/21/6 454/22/6 455/23/6
f 453/21/6 455/23/6 456/24/6
f 457/4/7 458/25/7 459/26/8
f 457/4/7 459/26/8 460/27/8
f 461/13/9 462/28/10 463/29/87
f 461/13/9 463/29/87 464/30/87
f 465/3/11 466/31/12 467/32/12
f 465/3/11 467/32/12 468/33/11
f 469/11/13 470/34/13 471/35/13
f 469/11/13 471/35/13 472/31/13
f 473/14/16 474/36/15 475/35/15
f 473/14/16 475/35/15 476/34/14
f 477/37/17 478/38/17 479/39/17
f 477/37/17 479/39/17 480/40/17
f 481/16/20 482/41/19 483/42/19
f 481/16/20 483/42/19 484/43/18
f 485/17/21 486/40/21 487/39/21
f 485/17/21 487/39/21 488/44/22
f 489/10/23 490/45/23 491/46/23
f 489/10/23 491/46/23 492/47/23
f 493/18/24 494/48/24 495/49/25
f 493/18/24 495/49/25 496/45/25
f 497/15/27 498/47/26 499/46/28
f 497/15/27 499/46/28 500/50/28
f 501/51/29 502/52/29 503/53/29
f 501/51/29 503/53/29 504/54/29
f 505/8/30 506/55/81 507/56/81
f 505/8/30 507/56/81 508/57/30
f 509/1/32 510/58/33 511/59/33
f 509/1/32 511/59/33 512/60/32
f 513/12/34 514/61/34 515/62/34
f 513/12/34 515/62/34 516/63/88
f 517/2/35 518/64/35 519/65/36
f 517/2/35 519/65/36 520/61/36
f 521/7/37 522/63/37 523/62/37
f 521/7/37 523/62/37 524/66/37
f 525/67/40 526/68/40 527/69/40
f 525/67/40 527/69/40 528/70/40
f 529/20/42 530/71/42 531/69/41
f 529/20/42 531/69/41 532/68/41
f 533/5/89 534/72/43 535/73/89
f 533/5/89 535/73/89 536/74/43
f 537/9/45 538/75/45 539/76/45
f 537/9/45 539/76/45 540/77/45
f 541/6/48 542/78/47 543/76/47
f 541/6/48 543/76/47 544/75/48
f 545/19/49 546/77/50 547/79/50
f 545/19/49 547/79/50 548/80/49
s 0
f 549/37/52 550/21/52 551/24/52
f 549/37/52 551/24/52 552/38/52
f 553/43/53 554/28/53 555/13/53
f 553/43/53 555/13/53 556/16/53
f 557/4/54 558/3/54 559/33/54
f 557/4/85 559/33/85 560/25/85
f 561/30/55 562/36/55 563/14/55
f 561/30/55 563/14/55 564/13/55
f 565/11/90 566/10/90 567/47/90
f 565/11/90 567/47/90 568/34/90
f 569/34/57 570/47/57 571/15/57
f 569/34/57 571/15/57 572/14/57
f 573/18/58 574/17/58 575/44/58
f 573/18/58 575/44/58 576/48/58
f 577/50/60 578/41/60 579/16/60
f 577/50/60 579/16/60 580/15/60
f 581/67/61 582/37/61 583/40/61
f 581/67/61 583/40/61 584/68/61
f 585/68/62 586/40/62 587/17/62
f 585/68/62 587/17/62 588/20/62
f 589/10/63 590/9/63 591/77/63
f 589/10/63 591/77/63 592/45/63
s 1
f 593/45/64 594/77/64 595/19/64
s 0
f 593/45/64 595/19/64 596/18/64
f 597/6/65 598/5/65 599/74/65
f 597/6/65 599/74/65 600/78/65
f 601/80/66 602/71/66 603/20/66
f 601/80/66 603/20/66 604/19/66
f 605/51/67 606/67/67 607/70/67
f 605/51/68 607/70/68 608/52/68
f 609/57/69 610/72/69 611/5/69
f 609/57/69 611/5/69 612/8/69
f 613/9/70 614/12/70 615/63/70
f 613/9/70 615/63/70 616/75/70
f 617/75/71 618/63/71 619/7/71
f 617/75/71 619/7/71 620/6/71
s 1
f 621/2/72 622/1/72 623/60/72
s 0
f 621/2/72 623/60/72 624/64/72
f 625/66/73 626/55/73 627/8/73
f 625/66/73 627/8/73 628/7/73
f 629/21/74 630/51/74 631/54/74
f 629/21/74 631/54/74 632/22/74
f 633/27/75 634/58/75 635/1/75
f 633/27/75 635/1/75 636/4/75
f 637/12/76 638/11/76 639/31/76
f 637/12/76 639/31/76 640/61/76
f 641/61/77 642/31/77 643/3/77
f 641/61/77 643/3/77 644/2/77
f 645/37/78 646/67/78 647/51/78
f 645/37/78 647/51/78 648/21/78
f 649/1/1 650/2/1 651/3/1
f 649/1/1 651/3/1 652/4/1
f 653/5/2 654/6/2 655/7/2
f 653/5/2 655/7/2 656/8/2
f 657/9/3 658/10/3 659/11/3
f 657/9/3 659/11/3 660/12/3
f 661/13/4 662/14/4 663/15/4
f 661/13/4 663/15/4 664/16/4
f 665/17/5 666/18/5 667/19/5
f 665/17/5 667/19/5 668/20/5
s 1
f 669/21/6 670/22/6 671/23/6
f 669/21/6 671/23/6 672/24/6
f 673/4/7 674/25/7 675/26/8
f 673/4/7 675/26/8 676/27/8
f 677/13/9 678/28/10 679/29/87
f 677/13/9 679/29/87 680/30/87
f 681/3/12 682/31/12 683/32/12
f 681/3/12 683/32/12 684/33/11
f 685/11/13 686/34/13 687/35/13
f 685/11/13 687/35/13 688/31/13
f 689/14/14 690/36/15 691/35/16
f 689/14/14 691/35/16 692/34/14
f 693/37/17 694/38/17 695/39/17
f 693/37/17 695/39/17 696/40/17
f 697/16/18 698/41/19 699/42/20
f 697/16/18 699/42/20 700/43/18
f 701/17/21 702/40/21 703/39/21
f 701/17/21 703/39/21 704/44/22
f 705/10/23 706/45/23 707/46/23
f 705/10/23 707/46/23 708/47/23
f 709/18/24 710/48/24 711/49/25
f 709/18/24 711/49/25 712/45/25
f 713/15/27 714/47/26 715/46/28
f 713/15/27 715/46/28 716/50/28
f 717/51/29 718/52/29 719/53/29
f 717/51/29 719/53/29 720/54/29
f 721/8/30 722/55/81 723/56/81
f 721/8/30 723/56/81 724/57/30
f 725/1/32 726/58/33 727/59/33
f 725/1/32 727/59/33 728/60/32
f 729/12/34 730/61/34 731/62/34
f 729/12/34 731/62/34 732/63/88
f 733/2/35 734/64/35 735/65/36
f 733/2/35 735/65/36 736/61/36
f 737/7/37 738/63/38 739/62/38
f 737/7/37 739/62/38 740/66/39
f 741/67/40 742/68/40 743/69/40
f 741/67/40 743/69/40 744/70/40
f 745/20/41 746/71/42 747/69/41
f 745/20/41 747/69/41 748/68/41
f 749/5/43 750/72/44 751/73/44
f 749/5/43 751/73/44 752/74/89
f 753/9/45 754/75/45 755/76/45
f 753/9/45 755/76/45 756/77/45
f 757/6/48 758/78/47 759/76/47
f 757/6/48 759/76/47 760/75/48
f 761/19/49 762/77/50 763/79/50
f 761/19/49 763/79/50 764/80/49
s 0
f 765/37/51 766/21/51 767/24/51
f 765/37/52 767/24/52 768/38/52
f 769/43/53 770/28/53 771/13/53
f 769/43/53 771/13/53 772/16/53
f 773/4/54 774/3/54 775/33/54
f 773/4/54 775/33/54 776/25/54
f 777/30/55 778/36/55 779/14/55
f 777/30/55 779/14/55 780/13/55
f 781/11/56 782/10/56 783/47/56
f 781/11/56 783/47/56 784/34/56
f 785/34/57 786/47/57 787/15/57
f 785/34/57 787/15/57 788/14/57
f 789/18/59 790/17/59 791/44/59
f 789/18/59 791/44/59 792/48/59
f 793/50/60 794/41/60 795/16/60
f 793/50/60 795/16/60 796/15/60
f 797/67/61 798/37/61 799/40/61
f 797/67/61 799/40/61 800/68/61
f 801/68/62 802/40/62 803/17/62
f 801/68/62 803/17/62 804/20/62
f 805/10/63 806/9/63 807/77/63
f 805/10/63 807/77/63 808/45/63
f 809/45/64 810/77/64 811/19/64
f 809/45/64 811/19/64 812/18/64
f 813/6/65 814/5/65 815/74/65
f 813/6/65 815/74/65 816/78/65
f 817/80/66 818/71/66 819/20/66
f 817/80/66 819/20/66 820/19/66
f 821/51/67 822/67/67 823/70/67
f 821/51/68 823/70/68 824/52/68
f 825/57/69 826/72/69 827/5/69
f 825/57/69 827/5/69 828/8/69
f 829/9/70 830/12/70 831/63/70
f 829/9/70 831/63/70 832/75/70
f 833/75/71 834/63/71 835/7/71
f 833/75/71 835/7/71 836/6/71
f 837/2/72 838/1/72 839/60/72
f 837/2/72 839/60/72 840/64/72
f 841/66/73 842/55/73 843/8/73
f 841/66/73 843/8/73 844/7/73
f 845/21/74 846/51/74 847/54/74
f 845/21/74 847/54/74 848/22/74
f 849/27/75 850/58/75 851/1/75
f 849/27/75 851/1/75 852/4/75
f 853/12/76 854/11/76 855/31/76
f 853/12/76 855/31/76 856/61/76
f 857/61/77 858/31/77 859/3/77
f 857/61/77 859/3/77 860/2/77
f 861/37/78 862/67/78 863/51/78
f 861/37/78 863/51/78 864/21/78
f 865/1/1 866/2/1 867/3/1
f 865/1/1 867/3/1 868/4/1
f 869/5/2 870/6/2 871/7/2
f 869/5/2 871/7/2 872/8/2
f 873/9/3 874/10/3 875/11/3
f 873/9/3 875/11/3 876/12/3
f 877/13/4 878/14/4 879/15/4
f 877/13/4 879/15/4 880/16/4
f 881/17/5 882/18/5 883/19/5
f 881/17/5 883/19/5 884/20/5
s 1
f 885/21/6 886/22/6 887/23/6
f 885/21/6 887/23/6 888/24/6
f 889/4/7 890/25/7 891/26/8
f 889/4/7 891/26/8 892/27/8
f 893/13/9 894/28/10 895/29/87
f 893/13/9 895/29/87 896/30/87
f 897/3/11 898/31/12 899/32/12
f 897/3/11 899/32/12 900/33/11
f 901/11/13 902/34/13 903/35/13
f 901/11/13 903/35/13 904/31/13
f 905/14/14 906/36/15 907/35/15
f 905/14/14 907/35/15 908/34/14
f 909/37/17 910/38/17 911/39/17
f 909/37/17 911/39/17 912/40/17
f 913/16/18 914/41/19 915/42/19
f 913/16/18 915/42/19 916/43/18
f 917/17/21 918/40/21 919/39/21
f 917/17/21 919/39/21 920/44/22
f 921/10/23 922/45/23 923/46/23
f 921/10/23 923/46/23 924/47/23
f 925/18/24 926/48/24 927/49/25
f 925/18/24 927/49/25 928/45/25
f 929/15/27 930/47/26 931/46/28
f 929/15/27 931/46/28 932/50/28
f 933/51/29 934/52/29 935/53/29
f 933/51/29 935/53/29 936/54/29
f 937/8/30 938/55/81 939/56/81
f 937/8/30 939/56/81 940/57/30
f 941/1/32 942/58/33 943/59/33
f 941/1/32 943/59/33 944/60/33
f 945/12/34 946/61/34 947/62/34
f 945/12/34 947/62/34 948/63/88
f 949/2/35 950/64/35 951/65/36
f 949/2/35 951/65/36 952/61/36
f 953/7/37 954/63/38 955/62/39
f 953/7/37 955/62/39 956/66/39
f 957/67/40 958/68/40 959/69/40
f 957/67/40 959/69/40 960/70/40
f 961/20/41 962/71/42 963/69/41
f 961/20/41 963/69/41 964/68/41
f 965/5/43 966/72/44 967/73/44
f 965/5/43 967/73/44 968/74/89
f 969/9/45 970/75/45 971/76/45
f 969/9/45 971/76/45 972/77/45
f 973/6/48 974/78/47 975/76/47
f 973/6/48 975/76/47 976/75/48
f 977/19/49 978/77/50 979/79/50
f 977/19/49 979/79/50 980/80/49
s 0
f 981/37/52 982/21/52 983/24/52
f 981/37/52 983/24/52 984/38/52
f 985/43/53 986/28/53 987/13/53
f 985/43/53 987/13/53 988/16/53
f 989/4/85 990/3/85 991/33/85
f 989/4/85 991/33/85 992/25/85
f 993/30/55 994/36/55 995/14/55
f 993/30/55 995/14/55 996/13/55
f 997/11/90 998/10/90 999/47/90
f 997/11/90 999/47/90 1000/34/90
f 1001/34/57 1002/47/57 1003/15/57
f 1001/34/57 1003/15/57 1004/14/57
f 1005/18/58 1006/17/58 1007/44/58
f 1005/18/58 1007/44/58 1008/48/58
f 1009/50/60 1010/41/60 1011/16/60
f 1009/50/60 1011/16/60 1012/15/60
f 1013/67/61 1014/37/61 1015/40/61
f 1013/67/61 1015/40/61 1016/68/61
f 1017/68/62 1018/40/62 1019/17/62
f 1017/68/62 1019/17/62 1020/20/62
f 1021/10/63 1022/9/63 1023/77/63
f 1021/10/63 1023/77/63 1024/45/63
f 1025/45/64 1026/77/64 1027/19/64
f 1025/45/64 1027/19/64 1028/18/64
f 1029/6/65 1030/5/65 1031/74/65
f 1029/6/65 1031/74/65 1032/78/65
f 1033/80/66 1034/71/66 1035/20/66
f 1033/80/66 1035/20/66 1036/19/66
f 1037/51/67 1038/67/67 1039/70/67
f 1037/51/68 1039/70/68 1040/52/68
f 1041/57/69 1042/72/69 1043/5/69
f 1041/57/69 1043/5/69 1044/8/69
f 1045/9/70 1046/12/70 1047/63/70
f 1045/9/70 1047/63/70 1048/75/70
f 1049/75/71 1050/63/71 1051/7/71
f 1049/75/71 1051/7/71 1052/6/71
f 1053/2/72 1054/1/72 1055/60/72
f 1053/2/72 1055/60/72 1056/64/72
f 1057/66/73 1058/55/73 1059/8/73
f 1057/66/73 1059/8/73 1060/7/73
f 1061/21/74 1062/51/74 1063/54/74
f 1061/21/74 1063/54/74 1064/22/74
f 1065/27/75 1066/58/75 1067/1/75
f 1065/27/75 1067/1/75 1068/4/75
f 1069/12/76 1070/11/76 1071/31/76
f 1069/12/76 1071/31/76 1072/61/76
f 1073/61/77 1074/31/77 1075/3/77
f 1073/61/77 1075/3/77 1076/2/77
f 1077/37/78 1078/67/78 1079/51/78
f 1077/37/78 1079/51/78 1080/21/78
f 1081/1/1 1082/2/1 1083/3/1
f 1081/1/1 1083/3/1 1084/4/1
f 1085/5/2 1086/6/2 1087/7/2
f 1085/5/2 1087/7/2 1088/8/2
f 1089/9/3 1090/10/3 1091/11/3
f 1089/9/3 1091/11/3 1092/12/3
f 1093/13/4 1094/14/4 1095/15/4
f 1093/13/4 1095/15/4 1096/16/4
f 1097/17/5 1098/18/5 1099/19/5
f 1097/17/5 1099/19/5 1100/20/5
s 1
f 1101/21/6 1102/22/6 1103/23/6
f 1101/21/6 1103/23/6 1104/24/6
f 1105/4/7 1106/25/7 1107/26/8
f 1105/4/7 1107/26/8 1108/27/8
f 1109/13/10 1110/28/9 1111/29/87
f 1109/13/10 1111/29/87 1112/30/87
f 1113/3/12 1114/31/12 1115/32/11
f 1113/3/12 1115/32/11 1116/33/11
f 1117/11/13 1118/34/13 1119/35/13
f 1117/11/13 1119/35/13 1120/31/13
f 1121/14/14 1122/36/15 1123/35/16
f 1121/14/14 1123/35/16 1124/34/14
f 1125/37/17 1126/38/17 1127/39/17
f 1125/37/17 1127/39/17 1128/40/17
f 1129/16/18 1130/41/19 1131/42/20
f 1129/16/18 1131/42/20 1132/43/18
f 1133/17/21 1134/40/21 1135/39/21
f 1133/17/21 1135/39/21 1136/44/22
f 1137/10/23 1138/45/23 1139/46/23
f 1137/10/23 1139/46/23 1140/47/23
f 1141/18/24 1142/48/24 1143/49/25
f 1141/18/24 1143/49/25 1144/45/25
f 1145/15/27 1146/47/26 1147/46/28
f 1145/15/27 1147/46/28 1148/50/28
f 1149/51/29 1150/52/29 1151/53/29
f 1149/51/29 1151/53/29 1152/54/29
f 1153/8/30 1154/55/81 1155/56/81
f 1153/8/30 1155/56/81 1156/57/30
f 1157/1/32 1158/58/33 1159/59/33
f 1157/1/32 1159/59/33 1160/60/32
f 1161/12/34 1162/61/34 1163/62/34
f 1161/12/34 1163/62/34 1164/63/34
f 1165/2/35 1166/64/35 1167/65/35
f 1165/2/35 1167/65/35 1168/61/36
f 1169/7/38 1170/63/37 1171/62/38
f 1169/7/38 1171/62/38 1172/66/39
f 1173/67/40 1174/68/40 1175/69/40
f 1173/67/40 1175/69/40 1176/70/40
f 1177/20/41 1178/71/42 1179/69/41
f 1177/20/41 1179/69/41 1180/68/41
f 1181/5/43 1182/72/44 1183/73/44
f 1181/5/43 1183/73/44 1184/74/89
f 1185/9/45 1186/75/45 1187/76/45
f 1185/9/45 1187/76/45 1188/77/45
f 1189/6/48 1190/78/47 1191/76/47
f 1189/6/48 1191/76/47 1192/75/46
f 1193/19/49 1194/77/50 1195/79/50
f 1193/19/49 1195/79/50 1196/80/49
s 0
f 1197/37/51 1198/21/51 1199/24/51
f 1197/37/52 1199/24/52 1200/38/52
f 1201/43/53 1202/28/53 1203/13/53
f 1201/43/53 1203/13/53 1204/16/53
f 1205/4/54 1206/3/54 1207/33/54
f 1205/4/54 1207/33/54 1208/25/54
f 1209/30/55 1210/36/55 1211/14/55
f 1209/30/55 1211/14/55 1212/13/55
f 1213/11/56 1214/10/56 1215/47/56
f 1213/11/56 1215/47/56 1216/34/56
f 1217/34/57 1218/47/57 1219/15/57
f 1217/34/57 1219/15/57 1220/14/57
f 1221/18/59 1222/17/59 1223/44/59
f 1221/18/59 1223/44/59 1224/48/59
f 1225/50/60 1226/41/60 1227/16/60
f 1225/50/60 1227/16/60 1228/15/60
f 1229/67/61 1230/37/61 1231/40/61
f 1229/67/61 1231/40/61 1232/68/61
f 1233/68/62 1234/40/62 1235/17/62
f 1233/68/62 1235/17/62 1236/20/62
f 1237/10/63 1238/9/63 1239/77/63
f 1237/10/63 1239/77/63 1240/45/63
f 1241/45/64 1242/77/64 1243/19/64
f 1241/45/64 1243/19/64 1244/18/64
f 1245/6/65 1246/5/65 1247/74/65
f 1245/6/65 1247/74/65 1248/78/65
f 1249/80/66 1250/71/66 1251/20/66
f 1249/80/66 1251/20/66 1252/19/66
f 1253/51/67 1254/67/67 1255/70/67
f 1253/51/68 1255/70/68 1256/52/68
f 1257/57/69 1258/72/69 1259/5/69
f 1257/57/69 1259/5/69 1260/8/69
f 1261/9/70 1262/12/70 1263/63/70
f 1261/9/70 1263/63/70 1264/75/70
f 1265/75/71 1266/63/71 1267/7/71
f 1265/75/71 1267/7/71 1268/6/71
f 1269/2/72 1270/1/72 1271/60/72
f 1269/2/72 1271/60/72 1272/64/72
f 1273/66/73 1274/55/73 1275/8/73
f 1273/66/73 1275/8/73 1276/7/73
f 1277/21/74 1278/51/74 1279/54/74
f 1277/21/74 1279/54/74 1280/22/74
f 1281/27/75 1282/58/75 1283/1/75
f 1281/27/75 1283/1/75 1284/4/75
f 1285/12/76 1286/11/76 1287/31/76
f 1285/12/76 1287/31/76 1288/61/76
f 1289/61/77 1290/31/77 1291/3/77
f 1289/61/77 1291/3/77 1292/2/77
f 1293/37/78 1294/67/78 1295/51/78
f 1293/37/78 1295/51/78 1296/21/78
f 1297/1/1 1298/2/1 1299/3/1
f 1297/1/1 1299/3/1 1300/4/1
f 1301/5/2 1302/6/2 1303/7/2
f 1301/5/2 1303/7/2 1304/8/2
f 1305/9/3 1306/10/3 1307/11/3
f 1305/9/3 1307/11/3 1308/12/3
f 1309/13/4 1310/14/4 1311/15/4
f 1309/13/4 1311/15/4 1312/16/4
f 1313/17/5 1314/18/5 1315/19/5
f 1313/17/5 1315/19/5 1316/20/5
s 1
f 1317/21/6 1318/22/6 1319/23/6
f 1317/21/6 1319/23/6 1320/24/6
f 1321/4/7 1322/25/7 1323/26/7
f 1321/4/7 1323/26/7 1324/27/7
f 1325/13/9 1326/28/10 1327/29/10
f 1325/13/9 1327/29/10 1328/30/9
f 1329/3/11 1330/31/12 1331/32/11
f 1329/3/11 1331/32/11 1332/33/79
f 1333/11/13 1334/34/13 1335/35/13
f 1333/11/13 1335/35/13 1336/31/13
f 1337/14/16 1338/36/14 1339/35/16
f 1337/14/16 1339/35/16 1340/34/14
f 1341/37/17 1342/38/17 1343/39/17
f 1341/37/17 1343/39/17 1344/40/80
f 1345/16/20 1346/41/19 1347/42/20
f 1345/16/20 1347/42/20 1348/43/18
f 1349/17/22 1350/40/21 1351/39/21
f 1349/17/22 1351/39/21 1352/44/22
f 1353/10/23 1354/45/23 1355/46/23
f 1353/10/23 1355/46/23 1356/47/23
f 1357/18/24 1358/48/24 1359/49/24
f 1357/18/24 1359/49/24 1360/45/24
f 1361/15/27 1362/47/26 1363/46/26
f 1361/15/27 1363/46/26 1364/50/28
f 1365/51/29 1366/52/29 1367/53/91
f 1365/51/29 1367/53/91 1368/54/29
f 1369/8/30 1370/55/30 1371/56/81
f 1369/8/30 1371/56/81 1372/57/30
f 1373/1/32 1374/58/32 1375/59/32
f 1373/1/32 1375/59/32 1376/60/32
f 1377/12/34 1378/61/34 1379/62/34
f 1377/12/34 1379/62/34 1380/63/34
f 1381/2/35 1382/64/83 1383/65/35
f 1381/2/35 1383/65/35 1384/61/36
f 1385/7/92 1386/63/37 1387/62/39
f 1385/7/92 1387/62/39 1388/66/39
f 1389/67/40 1390/68/93 1391/69/93
f 1389/67/40 1391/69/93 1392/70/40
f 1393/20/41 1394/71/41 1395/69/41
f 1393/20/41 1395/69/41 1396/68/41
f 1397/5/43 1398/72/43 1399/73/89
f 1397/5/43 1399/73/89 1400/74/89
f 1401/9/45 1402/75/45 1403/76/45
f 1401/9/45 1403/76/45 1404/77/45
f 1405/6/47 1406/78/47 1407/76/47
f 1405/6/47 1407/76/47 1408/75/48
f 1409/19/49 1410/77/49 1411/79/49
f 1409/19/49 1411/79/49 1412/80/49
s 0
f 1413/37/51 1414/21/51 1415/24/51
f 1413/37/52 1415/24/52 1416/38/52
f 1417/43/94 1418/28/94 1419/13/94
f 1417/43/94 1419/13/94 1420/16/94
f 1421/4/54 1422/3/54 1423/33/54
f 1421/4/54 1423/33/54 1424/25/54
f 1425/30/95 1426/36/95 1427/14/95
f 1425/30/95 1427/14/95 1428/13/95
f 1429/11/56 1430/10/56 1431/47/56
f 1429/11/56 1431/47/56 1432/34/56
f 1433/34/96 1434/47/96 1435/15/96
f 1433/34/96 1435/15/96 1436/14/96
f 1437/18/58 1438/17/58 1439/44/58
f 1437/18/59 1439/44/59 1440/48/59
f 1441/50/60 1442/41/60 1443/16/60
f 1441/50/97 1443/16/97 1444/15/97
f 1445/67/61 1446/37/61 1447/40/61
f 1445/67/61 1447/40/61 1448/68/61
f 1449/68/62 1450/40/62 1451/17/62
f 1449/68/62 1451/17/62 1452/20/62
f 1453/10/63 1454/9/63 1455/77/63
f 1453/10/63 1455/77/63 1456/45/63
f 1457/45/64 1458/77/64 1459/19/64
f 1457/45/64 1459/19/64 1460/18/64
f 1461/6/65 1462/5/65 1463/74/65
f 1461/6/65 1463/74/65 1464/78/65
f 1465/80/98 1466/71/98 1467/20/98
f 1465/80/98 1467/20/98 1468/19/98
f 1469/51/99 1470/67/99 1471/70/99
f 1469/51/67 1471/70/67 1472/52/67
f 1473/57/69 1474/72/69 1475/5/69
f 1473/57/69 1475/5/69 1476/8/69
f 1477/9/100 1478/12/100 1479/63/100
f 1477/9/100 1479/63/100 1480/75/100
f 1481/75/71 1482/63/71 1483/7/71
f 1481/75/71 1483/7/71 1484/6/71
f 1485/2/86 1486/1/86 1487/60/86
f 1485/2/86 1487/60/86 1488/64/86
f 1489/66/73 1490/55/73 1491/8/73
f 1489/66/73 1491/8/73 1492/7/73
f 1493/21/74 1494/51/74 1495/54/74
f 1493/21/74 1495/54/74 1496/22/74
f 1497/27/75 1498/58/75 1499/1/75
f 1497/27/75 1499/1/75 1500/4/75
f 1501/12/76 1502/11/76 1503/31/76
f 1501/12/76 1503/31/76 1504/61/76
f 1505/61/77 1506/31/77 1507/3/77
f 1505/61/77 1507/3/77 1508/2/77
f 1509/37/78 1510/67/78 1511/51/78
f 1509/37/78 1511/51/78 1512/21/78
f 1513/1/1 1514/2/1 1515/3/1
f 1513/1/1 1515/3/1 1516/4/1
f 1517/5/2 1518/6/2 1519/7/2
f 1517/5/2 1519/7/2 1520/8/2
f 1521/9/3 1522/10/3 1523/11/3
f 1521/9/3 1523/11/3 1524/12/3
f 1525/13/4 1526/14/4 1527/15/4
f 1525/13/4 1527/15/4 1528/16/4
f 1529/17/5 1530/18/5 1531/19/5
f 1529/17/5 1531/19/5 1532/20/5
s 1
f 1533/21/6 1534/22/6 1535/23/6
f 1533/21/6 1535/23/6 1536/24/6
f 1537/4/7 1538/25/7 1539/26/7
f 1537/4/7 1539/26/7 1540/27/7
f 1541/13/9 1542/28/9 1543/29/10
f 1541/13/9 1543/29/10 1544/30/87
f 1545/3/11 1546/31/12 1547/32/11
f 1545/3/11 1547/32/11 1548/33/79
f 1549/11/13 1550/34/13 1551/35/13
f 1549/11/13 1551/35/13 1552/31/13
f 1553/14/16 1554/36/15 1555/35/16
f 1553/14/16 1555/35/16 1556/34/14
f 1557/37/17 1558/38/17 1559/39/17
f 1557/37/17 1559/39/17 1560/40/80
f 1561/16/20 1562/41/19 1563/42/20
f 1561/16/20 1563/42/20 1564/43/18
f 1565/17/22 1566/40/21 1567/39/21
f 1565/17/22 1567/39/21 1568/44/21
f 1569/10/23 1570/45/23 1571/46/23
f 1569/10/23 1571/46/23 1572/47/23
f 1573/18/24 1574/48/24 1575/49/24
f 1573/18/24 1575/49/24 1576/45/25
f 1577/15/26 1578/47/26 1579/46/26
f 1577/15/26 1579/46/26 1580/50/28
f 1581/51/29 1582/52/29 1583/53/91
f 1581/51/29 1583/53/91 1584/54/91
f 1585/8/81 1586/55/81 1587/56/101
f 1585/8/81 1587/56/101 1588/57/101
f 1589/1/32 1590/58/33 1591/59/32
f 1589/1/32 1591/59/32 1592/60/82
f 1593/12/34 1594/61/34 1595/62/34
f 1593/12/34 1595/62/34 1596/63/34
f 1597/2/35 1598/64/83 1599/65/35
f 1597/2/35 1599/65/35 1600/61/36
f 1601/7/92 1602/63/39 1603/62/102
f 1601/7/92 1603/62/102 1604/66/92
f 1605/67/40 1606/68/93 1607/69/93
f 1605/67/40 1607/69/93 1608/70/40
f 1609/20/41 1610/71/41 1611/69/41
f 1609/20/41 1611/69/41 1612/68/41
f 1613/5/103 1614/72/89 1615/73/103
f 1613/5/103 1615/73/103 1616/74/103
f 1617/9/45 1618/75/45 1619/76/45
f 1617/9/45 1619/76/45 1620/77/104
f 1621/6/48 1622/78/47 1623/76/47
f 1621/6/48 1623/76/47 1624/75/48
f 1625/19/49 1626/77/49 1627/79/49
f 1625/19/49 1627/79/49 1628/80/49
s 0
f 1629/37/51 1630/21/51 1631/24/51
f 1629/37/52 1631/24/52 1632/38/52
f 1633/43/94 1634/28/94 1635/13/94
f 1633/43/94 1635/13/94 1636/16/94
f 1637/4/54 1638/3/54 1639/33/54
f 1637/4/54 1639/33/54 1640/25/54
f 1641/30/95 1642/36/95 1643/14/95
f 1641/30/95 1643/14/95 1644/13/95
f 1645/11/56 1646/10/56 1647/47/56
f 1645/11/56 1647/47/56 1648/34/56
f 1649/34/96 1650/47/96 1651/15/96
f 1649/34/96 1651/15/96 1652/14/96
f 1653/18/59 1654/17/59 1655/44/59
f 1653/18/59 1655/44/59 1656/48/59
f 1657/50/60 1658/41/60 1659/16/60
f 1657/50/97 1659/16/97 1660/15/97
f 1661/67/61 1662/37/61 1663/40/61
f 1661/67/61 1663/40/61 1664/68/61
f 1665/68/62 1666/40/62 1667/17/62
f 1665/68/62 1667/17/62 1668/20/62
f 1669/10/63 1670/9/63 1671/77/63
f 1669/10/63 1671/77/63 1672/45/63
f 1673/45/64 1674/77/64 1675/19/64
f 1673/45/64 1675/19/64 1676/18/64
f 1677/6/65 1678/5/65 1679/74/65
f 1677/6/65 1679/74/65 1680/78/65
f 1681/80/98 1682/71/98 1683/20/98
f 1681/80/98 1683/20/98 1684/19/98
f 1685/51/99 1686/67/99 1687/70/99
f 1685/51/67 1687/70/67 1688/52/67
f 1689/57/69 1690/72/69 1691/5/69
f 1689/57/69 1691/5/69 1692/8/69
f 1693/9/100 1694/12/100 1695/63/100
f 1693/9/100 1695/63/100 1696/75/100
f 1697/75/71 1698/63/71 1699/7/71
f 1697/75/71 1699/7/71 1700/6/71
f 1701/2/86 1702/1/86 1703/60/86
f 1701/2/86 1703/60/86 1704/64/86
f 1705/66/73 1706/55/73 1707/8/73
f 1705/66/73 1707/8/73 1708/7/73
f 1709/21/74 1710/51/74 1711/54/74
f 1709/21/74 1711/54/74 1712/22/74
f 1713/27/75 1714/58/75 1715/1/75
f 1713/27/75 1715/1/75 1716/4/75
f 1717/12/76 1718/11/76 1719/31/76
f 1717/12/76 1719/31/76 1720/61/76
f 1721/61/77 1722/31/77 1723/3/77
f 1721/61/77 1723/3/77 1724/2/77
f 1725/37/78 1726/67/78 1727/51/78
f 1725/37/78 1727/51/78 1728/21/78
f 1729/81/105 1730/82/105 1731/83/105
f 1729/81/105 1731/83/105 1732/84/105
f 1733/85/106 1734/86/106 1735/87/106
f 1733/85/106 1735/87/106 1736/88/106
f 1737/89/5 1738/90/5 1739/91/5
f 1737/89/5 1739/91/5 1740/92/5
f 1741/92/2 1742/91/2 1743/93/2
f 1741/92/2 1743/93/2 1744/94/2
f 1745/95/5 1746/96/5 1747/97/5
f 1745/95/5 1747/97/5 1748/98/5
f 1749/99/4 1750/100/4 1751/101/4
f 1749/99/4 1751/101/4 1752/102/4
f 1753/103/78 1754/104/78 1755/105/78
f 1753/103/78 1755/105/78 1756/106/78
f 1757/107/1 1758/108/1 1759/109/1
f 1757/107/1 1759/109/1 1760/110/1
f 1761/111/78 1762/112/78 1763/113/78
f 1761/111/78 1763/113/78 1764/114/78
f 1765/115/1 1766/116/1 1767/117/1
f 1765/115/1 1767/117/1 1768/118/1
f 1769/119/2 1770/120/2 1771/121/2
f 1769/119/2 1771/121/2 1772/122/2
f 1773/123/78 1774/124/78 1775/116/78
f 1773/123/78 1775/116/78 1776/115/78
f 1777/125/78 1778/114/78 1779/113/78
f 1777/125/78 1779/113/78 1780/126/78
f 1781/100/1 1782/127/1 1783/128/1
f 1781/100/1 1783/128/1 1784/101/1
f 1785/129/78 1786/130/78 1787/121/78
f 1785/129/78 1787/121/78 1788/120/78
f 1789/104/78 1790/131/78 1791/132/78
f 1789/104/78 1791/132/78 1792/105/78
f 1793/133/3 1794/81/3 1795/84/3
f 1793/133/3 1795/84/3 1796/134/3
f 1797/90/4 1798/89/4 1799/107/4
f 1797/90/4 1799/107/4 1800/110/4
f 1801/135/78 1802/103/78 1803/106/78
f 1801/135/78 1803/106/78 1804/136/78
f 1805/137/3 1806/138/3 1807/139/3
f 1805/137/3 1807/139/3 1808/140/3
f 1809/141/3 1810/142/3 1811/143/3
f 1809/141/3 1811/143/3 1812/144/3
f 1813/111/78 1814/129/78 1815/120/78
f 1813/111/78 1815/120/78 1816/112/78
f 1817/98/2 1818/97/2 1819/145/2
f 1817/98/2 1819/145/2 1820/146/2
f 1821/96/4 1822/95/4 1823/115/4
f 1821/96/4 1823/115/4 1824/118/4
f 1825/99/5 1826/102/5 1827/147/5
f 1825/99/5 1827/147/5 1828/148/5
f 1829/140/5 1830/106/5 1831/105/5
f 1829/140/5 1831/105/5 1832/143/5
f 1833/149/5 1834/112/5 1835/120/5
f 1833/149/5 1835/120/5 1836/119/5
f 1837/139/1 1838/150/1 1839/151/1
f 1837/139/1 1839/151/1 1840/136/1
f 1841/152/1 1842/153/1 1843/126/1
f 1841/152/1 1843/126/1 1844/113/1
f 1845/154/3 1846/155/3 1847/119/3
f 1845/154/3 1847/119/3 1848/122/3
f 1849/143/2 1850/105/2 1851/132/2
f 1849/143/2 1851/132/2 1852/144/2
f 1853/112/4 1854/149/4 1855/152/4
f 1853/112/4 1855/152/4 1856/113/4
f 1857/106/4 1858/140/4 1859/139/4
f 1857/106/4 1859/139/4 1860/136/4
f 1861/156/78 1862/135/78 1863/136/78
f 1861/156/78 1863/136/78 1864/151/78
f 1865/155/3 1866/157/3 1867/149/3
f 1865/155/3 1867/149/3 1868/119/3
f 1869/158/3 1870/159/3 1871/153/3
f 1869/158/3 1871/153/3 1872/152/3
f 1873/142/3 1874/137/3 1875/140/3
f 1873/142/3 1875/140/3 1876/143/3
f 1877/138/3 1878/160/3 1879/150/3
f 1877/138/3 1879/150/3 1880/139/3
f 1881/161/107 1882/81/107 1883/133/107
f 1881/161/107 1883/133/107 1884/162/107
f 1885/148/2 1886/147/2 1887/163/2
f 1885/148/2 1887/163/2 1888/164/2
f 1889/165/108 1890/166/108 1891/134/108
f 1889/165/108 1891/134/108 1892/84/108
f 1893/167/109 1894/168/109 1895/83/109
f 1893/167/109 1895/83/109 1896/82/109
f 1897/85/110 1898/133/110 1899/134/110
f 1897/85/110 1899/134/110 1900/86/110
f 1901/166/111 1902/165/111 1903/169/111
f 1901/166/111 1903/169/111 1904/170/111
f 1905/161/112 1906/162/112 1907/171/112
f 1905/161/112 1907/171/112 1908/172/112
f 1909/158/3 1910/152/3 1911/149/3
f 1909/158/3 1911/149/3 1912/157/3
