# Blender 3.6.14
# www.blender.org
mtllib list_ico.mtl
o icon_ico#0
v 2.167236 2.930908 0.000000
v 1.941650 2.886230 -0.600342
v 2.041504 3.345459 0.000000
v 1.829102 3.257568 -0.600342
v 1.562500 4.062500 0.000000
v 1.837158 3.727539 0.000000
v 1.646240 3.599854 -0.600342
v 1.399902 3.899902 -0.600342
v 1.099854 4.146240 -0.600342
v 1.227539 4.337158 0.000000
v 0.757568 4.329102 -0.600342
v 0.386230 4.441650 -0.600342
v -0.430908 4.667236 0.000000
v 0.000000 4.709717 0.000000
v 0.000000 4.479736 -0.600342
v -1.099854 4.146240 -0.600342
v -1.562500 4.062500 0.000000
v -1.829102 3.257568 -0.600342
v -1.941650 2.886230 -0.600342
v -1.979736 2.499756 -0.600342
v -1.941650 2.113525 -0.600342
v -1.829102 1.742188 -0.600342
v -1.562500 0.937256 0.000000
v -1.227539 0.662598 0.000000
v -0.845459 0.458252 0.000000
v -0.757568 0.670654 -0.600342
v -0.430908 0.332520 0.000000
v 0.000000 0.290039 0.000000
v 0.000000 0.520020 -0.600342
v 0.845459 0.458252 0.000000
v 0.386230 0.558105 -0.600342
v 0.757568 0.670654 -0.600342
v 1.227539 0.662598 0.000000
v 1.099854 0.853516 -0.600342
v 1.562500 0.937256 0.000000
v 1.399902 1.099854 -0.600342
v 1.646240 1.399902 -0.600342
v 1.837158 1.272217 0.000000
v 2.041504 1.654297 0.000000
v 1.941650 2.113525 -0.600342
v 2.167236 2.068848 0.000000
v 1.829102 1.742188 -0.600342
v -0.386230 0.558105 -0.600342
v -1.099854 0.853516 -0.600342
v -1.399902 1.099854 -0.600342
v -1.646240 1.399902 -0.600342
v 1.979736 2.500000 -0.600342
v -1.646240 3.599854 -0.600342
v -1.399902 3.899902 -0.600342
v -0.757568 4.329102 -0.600342
v -0.386230 4.441650 -0.600342
v 1.646240 3.599854 0.600342
v 0.845459 4.541504 0.000000
v 1.099854 4.146240 0.600342
v 0.430908 4.667236 0.000000
v 0.386230 4.441650 0.600342
v 0.000000 4.479736 0.600342
v -0.845459 4.541504 0.000000
v -0.386230 4.441650 0.600342
v -0.757568 4.329102 0.600342
v -1.227539 4.337158 0.000000
v -1.837158 3.727539 0.000000
v -1.646240 3.599854 0.600342
v -2.041504 3.345459 0.000000
v -2.167236 2.930908 0.000000
v -1.941650 2.886230 0.600342
v -2.167236 2.068848 0.000000
v -2.209717 2.499756 0.000000
v -2.041504 1.654297 0.000000
v -1.837158 1.272217 0.000000
v -1.829102 1.742188 0.600342
v -1.646240 1.399902 0.600342
v -0.386230 0.558105 0.600342
v 0.430908 0.332520 0.000000
v 0.386230 0.558105 0.600342
v 1.646240 1.399902 0.600342
v 1.399902 1.099854 0.600342
v 2.209717 2.500000 0.000000
v 1.941650 2.113525 0.600342
v 1.829102 1.742188 0.600342
v 1.979736 2.500000 0.600342
v 1.941650 2.886230 0.600342
v 1.829102 3.257568 0.600342
v 0.757568 4.329102 0.600342
v 1.399902 3.899902 0.600342
v -1.099854 4.146240 0.600342
v -1.829102 3.257568 0.600342
v -1.399902 3.899902 0.600342
v -1.979736 2.499756 0.600342
v -1.941650 2.113525 0.600342
v -1.399902 1.099854 0.600342
v -1.099854 0.853516 0.600342
v -0.757568 0.670654 0.600342
v 0.000000 0.520020 0.600342
v 0.757568 0.670654 0.600342
v 1.099854 0.853516 0.600342
vn 0.9808 0.1951 -0.0000
vn 1.0000 -0.0000 -0.0000
vn 0.5898 -0.0000 -0.8075
vn 0.5784 0.1151 -0.8076
vn 0.9239 0.3827 -0.0000
vn 0.5450 0.2257 -0.8075
vn 0.8316 0.5554 -0.0000
vn 0.4906 0.3277 -0.8074
vn 0.7070 0.7072 -0.0000
vn 0.4170 0.4171 -0.8075
vn 0.5556 0.8315 -0.0000
vn 0.3278 0.4905 -0.8074
vn 0.3827 0.9239 -0.0000
vn 0.2256 0.5450 -0.8075
vn 0.1951 0.9808 -0.0000
vn 0.1150 0.5784 -0.8076
vn -0.0000 1.0000 -0.0000
vn -0.0000 0.5898 -0.8075
vn -0.1951 0.9808 -0.0000
vn -0.1151 0.5784 -0.8076
vn -0.3827 0.9239 -0.0000
vn -0.2257 0.5450 -0.8075
vn -0.5554 0.8316 -0.0000
vn -0.3277 0.4906 -0.8074
vn -0.7072 0.7070 -0.0000
vn -0.4171 0.4170 -0.8075
vn -0.8315 0.5556 -0.0000
vn -0.4905 0.3278 -0.8074
vn -0.9239 0.3827 -0.0000
vn -0.5450 0.2256 -0.8075
vn -0.9808 0.1950 -0.0000
vn -0.5784 0.1150 -0.8076
vn -1.0000 -0.0000 -0.0000
vn -0.5898 -0.0000 -0.8075
vn -0.9808 -0.1951 -0.0000
vn -0.5784 -0.1151 -0.8076
vn -0.9239 -0.3827 -0.0000
vn -0.5450 -0.2257 -0.8075
vn -0.8316 -0.5554 -0.0000
vn -0.4906 -0.3277 -0.8074
vn -0.7070 -0.7072 -0.0000
vn -0.4170 -0.4171 -0.8075
vn -0.5556 -0.8315 -0.0000
vn -0.3278 -0.4905 -0.8074
vn -0.3827 -0.9239 -0.0000
vn -0.2256 -0.5450 -0.8075
vn -0.1951 -0.9808 -0.0000
vn -0.1150 -0.5784 -0.8076
vn -0.0000 -1.0000 -0.0000
vn -0.0000 -0.5898 -0.8075
vn 0.1951 -0.9808 -0.0000
vn 0.1151 -0.5784 -0.8076
vn 0.3827 -0.9239 -0.0000
vn 0.2257 -0.5450 -0.8075
vn 0.5554 -0.8316 -0.0000
vn 0.3277 -0.4906 -0.8074
vn 0.7072 -0.7070 -0.0000
vn 0.4171 -0.4170 -0.8075
vn 0.8315 -0.5556 -0.0000
vn 0.4905 -0.3278 -0.8074
vn 0.9239 -0.3827 -0.0000
vn 0.5450 -0.2256 -0.8075
vn 0.9808 -0.1950 -0.0000
vn 0.5784 -0.1150 -0.8076
vn 0.5784 0.1151 0.8076
vn 0.5898 -0.0000 0.8075
vn 0.5450 0.2257 0.8075
vn 0.4906 0.3277 0.8074
vn 0.4170 0.4171 0.8075
vn 0.3278 0.4905 0.8074
vn 0.2256 0.5450 0.8075
vn 0.1150 0.5784 0.8076
vn -0.0000 0.5898 0.8075
vn -0.1151 0.5784 0.8076
vn -0.2257 0.5450 0.8075
vn -0.3277 0.4906 0.8074
vn -0.4171 0.4170 0.8075
vn -0.4905 0.3278 0.8074
vn -0.5450 0.2256 0.8075
vn -0.5784 0.1150 0.8076
vn -0.5898 -0.0000 0.8075
vn -0.5784 -0.1151 0.8076
vn -0.5450 -0.2257 0.8075
vn -0.4906 -0.3277 0.8074
vn -0.4170 -0.4171 0.8075
vn -0.3278 -0.4905 0.8074
vn -0.2256 -0.5450 0.8075
vn -0.1150 -0.5784 0.8076
vn -0.0000 -0.5898 0.8075
vn 0.1151 -0.5784 0.8076
vn 0.2257 -0.5450 0.8075
vn 0.3277 -0.4906 0.8074
vn 0.4171 -0.4170 0.8075
vn 0.4905 -0.3278 0.8074
vn 0.5450 -0.2256 0.8075
vn 0.5784 -0.1150 0.8076
vt 0.565186 0.977295
vt 0.505615 0.977295
vt 0.505615 0.888428
vt 0.565186 0.888428
vt 0.624756 0.977295
vt 0.624756 0.888428
vt 0.684326 0.977295
vt 0.684326 0.888428
vt 0.743652 0.977295
vt 0.743652 0.888428
vt 0.803223 0.977295
vt 0.803223 0.888428
vt 0.862793 0.977295
vt 0.862793 0.888428
vt 0.922363 0.977295
vt 0.922363 0.888428
vt 0.981934 0.977295
vt 0.981934 0.888428
vt 0.089600 0.977051
vt 0.030029 0.977051
vt 0.030029 0.888184
vt 0.089600 0.888184
vt 0.148926 0.977051
vt 0.089355 0.977051
vt 0.089355 0.888184
vt 0.148926 0.888184
vt 0.208496 0.977051
vt 0.208496 0.888184
vt 0.268066 0.977051
vt 0.268066 0.888184
vt 0.327637 0.977051
vt 0.327637 0.888184
vt 0.387207 0.977051
vt 0.387207 0.888184
vt 0.446777 0.977051
vt 0.446777 0.888184
vt 0.506104 0.977051
vt 0.506104 0.888184
vt 0.565674 0.977051
vt 0.565674 0.888184
vt 0.625244 0.977051
vt 0.625244 0.888184
vt 0.684814 0.977051
vt 0.684814 0.888184
vt 0.744385 0.977051
vt 0.744385 0.888184
vt 0.803955 0.977051
vt 0.803955 0.888184
vt 0.863525 0.977051
vt 0.863525 0.888184
vt 0.922852 0.977051
vt 0.922852 0.888184
vt 0.982422 0.977051
vt 0.982422 0.888184
vt 0.088867 0.977295
vt 0.029297 0.977295
vt 0.029297 0.888428
vt 0.088867 0.888428
vt 0.148438 0.977295
vt 0.148438 0.888428
vt 0.208008 0.977295
vt 0.208008 0.888428
vt 0.267334 0.977295
vt 0.267334 0.888428
vt 0.326904 0.977295
vt 0.326904 0.888428
vt 0.386475 0.977295
vt 0.386475 0.888428
vt 0.446045 0.977295
vt 0.446045 0.888428
vt 0.892090 0.615234
vt 0.916016 0.535889
vt 0.924072 0.453613
vt 0.916016 0.371094
vt 0.892090 0.291992
vt 0.853027 0.218994
vt 0.800537 0.154785
vt 0.736572 0.102295
vt 0.663330 0.063232
vt 0.584229 0.039307
vt 0.501709 0.031250
vt 0.419434 0.039307
vt 0.340088 0.063232
vt 0.267090 0.102295
vt 0.203125 0.154785
vt 0.150635 0.218994
vt 0.111572 0.291992
vt 0.087402 0.371094
vt 0.079346 0.453613
vt 0.087402 0.535889
vt 0.111572 0.615234
vt 0.150635 0.688232
vt 0.203125 0.752197
vt 0.267090 0.804688
vt 0.340088 0.843750
vt 0.419434 0.867920
vt 0.501709 0.875977
vt 0.584229 0.867920
vt 0.663330 0.843750
vt 0.736572 0.804688
vt 0.800537 0.752197
vt 0.853027 0.688232
s 1
usemtl icon_ico
f 1/1/1 78/2/2 47/3/3
f 47/3/3 2/4/4 1/1/1
f 3/5/5 1/1/1 2/4/4
f 2/4/4 4/6/6 3/5/5
f 6/7/7 3/5/5 4/6/6
f 4/6/6 7/8/8 6/7/7
f 5/9/9 6/7/7 7/8/8
f 7/8/8 8/10/10 5/9/9
f 10/11/11 5/9/9 8/10/10
f 8/10/10 9/12/12 10/11/11
f 53/13/13 10/11/11 9/12/12
f 9/12/12 11/14/14 53/13/13
f 55/15/15 53/13/13 11/14/14
f 11/14/14 12/16/16 55/15/15
f 14/17/17 55/15/15 12/16/16
f 12/16/16 15/18/18 14/17/17
f 13/19/19 14/20/17 15/21/18
f 15/21/18 51/22/20 13/19/19
f 58/23/21 13/24/19 51/25/20
f 51/25/20 50/26/22 58/23/21
f 61/27/23 58/23/21 50/26/22
f 50/26/22 16/28/24 61/27/23
f 17/29/25 61/27/23 16/28/24
f 16/28/24 49/30/26 17/29/25
f 62/31/27 17/29/25 49/30/26
f 49/30/26 48/32/28 62/31/27
f 64/33/29 62/31/27 48/32/28
f 48/32/28 18/34/30 64/33/29
f 65/35/31 64/33/29 18/34/30
f 18/34/30 19/36/32 65/35/31
f 68/37/33 65/35/31 19/36/32
f 19/36/32 20/38/34 68/37/33
f 67/39/35 68/37/33 20/38/34
f 20/38/34 21/40/36 67/39/35
f 69/41/37 67/39/35 21/40/36
f 21/40/36 22/42/38 69/41/37
f 70/43/39 69/41/37 22/42/38
f 22/42/38 46/44/40 70/43/39
f 23/45/41 70/43/39 46/44/40
f 46/44/40 45/46/42 23/45/41
f 24/47/43 23/45/41 45/46/42
f 45/46/42 44/48/44 24/47/43
f 25/49/45 24/47/43 44/48/44
f 44/48/44 26/50/46 25/49/45
f 27/51/47 25/49/45 26/50/46
f 26/50/46 43/52/48 27/51/47
f 28/53/49 27/51/47 43/52/48
f 43/52/48 29/54/50 28/53/49
f 74/55/51 28/56/49 29/57/50
f 29/57/50 31/58/52 74/55/51
f 30/59/53 74/55/51 31/58/52
f 31/58/52 32/60/54 30/59/53
f 33/61/55 30/59/53 32/60/54
f 32/60/54 34/62/56 33/61/55
f 35/63/57 33/61/55 34/62/56
f 34/62/56 36/64/58 35/63/57
f 38/65/59 35/63/57 36/64/58
f 36/64/58 37/66/60 38/65/59
f 39/67/61 38/65/59 37/66/60
f 37/66/60 42/68/62 39/67/61
f 41/69/63 39/67/61 42/68/62
f 42/68/62 40/70/64 41/69/63
f 78/2/2 41/69/63 40/70/64
f 40/70/64 47/3/3 78/2/2
f 4/71/6 2/72/4 47/73/3
f 47/73/3 40/74/64 42/75/62
f 42/75/62 37/76/60 36/77/58
f 47/73/3 42/75/62 36/77/58
f 36/77/58 34/78/56 32/79/54
f 32/79/54 31/80/52 29/81/50
f 36/77/58 32/79/54 29/81/50
f 47/73/3 36/77/58 29/81/50
f 29/81/50 43/82/48 26/83/46
f 26/83/46 44/84/44 45/85/42
f 29/81/50 26/83/46 45/85/42
f 45/85/42 46/86/40 22/87/38
f 22/87/38 21/88/36 20/89/34
f 45/85/42 22/87/38 20/89/34
f 29/81/50 45/85/42 20/89/34
f 47/73/3 29/81/50 20/89/34
f 20/89/34 19/90/32 18/91/30
f 18/91/30 48/92/28 49/93/26
f 20/89/34 18/91/30 49/93/26
f 49/93/26 16/94/24 50/95/22
f 50/95/22 51/96/20 15/97/18
f 49/93/26 50/95/22 15/97/18
f 20/89/34 49/93/26 15/97/18
f 47/73/3 20/89/34 15/97/18
f 15/97/18 12/98/16 11/99/14
f 11/99/14 9/100/12 8/101/10
f 15/97/18 11/99/14 8/101/10
f 47/73/3 15/97/18 8/101/10
f 4/71/6 47/73/3 8/101/10
f 4/71/6 8/101/10 7/102/8
f 1/1/1 82/4/65 81/3/66
f 81/3/66 78/2/2 1/1/1
f 3/5/5 83/6/67 82/4/65
f 82/4/65 1/1/1 3/5/5
f 6/7/7 52/8/68 83/6/67
f 83/6/67 3/5/5 6/7/7
f 5/9/9 85/10/69 52/8/68
f 52/8/68 6/7/7 5/9/9
f 10/11/11 54/12/70 85/10/69
f 85/10/69 5/9/9 10/11/11
f 53/13/13 84/14/71 54/12/70
f 54/12/70 10/11/11 53/13/13
f 55/15/15 56/16/72 84/14/71
f 84/14/71 53/13/13 55/15/15
f 14/17/17 57/18/73 56/16/72
f 56/16/72 55/15/15 14/17/17
f 13/19/19 59/22/74 57/21/73
f 57/21/73 14/20/17 13/19/19
f 58/23/21 60/26/75 59/25/74
f 59/25/74 13/24/19 58/23/21
f 61/27/23 86/28/76 60/26/75
f 60/26/75 58/23/21 61/27/23
f 17/29/25 88/30/77 86/28/76
f 86/28/76 61/27/23 17/29/25
f 62/31/27 63/32/78 88/30/77
f 88/30/77 17/29/25 62/31/27
f 64/33/29 87/34/79 63/32/78
f 63/32/78 62/31/27 64/33/29
f 65/35/31 66/36/80 87/34/79
f 87/34/79 64/33/29 65/35/31
f 68/37/33 89/38/81 66/36/80
f 66/36/80 65/35/31 68/37/33
f 67/39/35 90/40/82 89/38/81
f 89/38/81 68/37/33 67/39/35
f 69/41/37 71/42/83 90/40/82
f 90/40/82 67/39/35 69/41/37
f 70/43/39 72/44/84 71/42/83
f 71/42/83 69/41/37 70/43/39
f 23/45/41 91/46/85 72/44/84
f 72/44/84 70/43/39 23/45/41
f 24/47/43 92/48/86 91/46/85
f 91/46/85 23/45/41 24/47/43
f 25/49/45 93/50/87 92/48/86
f 92/48/86 24/47/43 25/49/45
f 27/51/47 73/52/88 93/50/87
f 93/50/87 25/49/45 27/51/47
f 28/53/49 94/54/89 73/52/88
f 73/52/88 27/51/47 28/53/49
f 74/55/51 75/58/90 94/57/89
f 94/57/89 28/56/49 74/55/51
f 30/59/53 95/60/91 75/58/90
f 75/58/90 74/55/51 30/59/53
f 33/61/55 96/62/92 95/60/91
f 95/60/91 30/59/53 33/61/55
f 35/63/57 77/64/93 96/62/92
f 96/62/92 33/61/55 35/63/57
f 38/65/59 76/66/94 77/64/93
f 77/64/93 35/63/57 38/65/59
f 39/67/61 80/68/95 76/66/94
f 76/66/94 38/65/59 39/67/61
f 41/69/63 79/70/96 80/68/95
f 80/68/95 39/67/61 41/69/63
f 78/2/2 81/3/66 79/70/96
f 79/70/96 41/69/63 78/2/2
f 77/77/93 76/76/94 80/75/95
f 80/75/95 79/74/96 81/73/66
f 77/77/93 80/75/95 81/73/66
f 81/73/66 82/72/65 83/71/67
f 83/71/67 52/102/68 85/101/69
f 81/73/66 83/71/67 85/101/69
f 85/101/69 54/100/70 84/99/71
f 84/99/71 56/98/72 57/97/73
f 85/101/69 84/99/71 57/97/73
f 81/73/66 85/101/69 57/97/73
f 57/97/73 59/96/74 60/95/75
f 60/95/75 86/94/76 88/93/77
f 57/97/73 60/95/75 88/93/77
f 88/93/77 63/92/78 87/91/79
f 87/91/79 66/90/80 89/89/81
f 88/93/77 87/91/79 89/89/81
f 57/97/73 88/93/77 89/89/81
f 81/73/66 57/97/73 89/89/81
f 89/89/81 90/88/82 71/87/83
f 71/87/83 72/86/84 91/85/85
f 89/89/81 71/87/83 91/85/85
f 91/85/85 92/84/86 93/83/87
f 93/83/87 73/82/88 94/81/89
f 91/85/85 93/83/87 94/81/89
f 89/89/81 91/85/85 94/81/89
f 81/73/66 89/89/81 94/81/89
f 77/77/93 81/73/66 94/81/89
f 94/81/89 75/80/90 95/79/91
f 77/77/93 94/81/89 95/79/91
f 77/77/93 95/79/91 96/78/92
