# Blender 5.1.2
# www.blender.org
mtllib chao_mapa.mtl
o Plane
v 11.243839 -1.322805 -46.298161
v 12.566644 -1.322805 -46.298161
v 11.243839 0.000000 -46.298161
v 12.566644 0.000000 -46.298161
v 15.212253 -1.322805 -46.959560
v 15.212253 0.000000 -46.959560
v 17.857862 -1.322805 -48.282368
v 17.857862 0.000000 -48.282368
v 20.503471 -1.322805 -50.266575
v 20.503471 0.000000 -50.266575
v 21.826275 -1.322805 -52.250782
v 21.826275 0.000000 -52.250782
v 22.487679 -1.322805 -55.557793
v 22.487679 0.000000 -55.557793
v 22.487679 -1.322805 -59.526207
v 22.487679 0.000000 -59.526207
v 21.826275 -1.322805 -62.833218
v 21.826275 0.000000 -62.833218
v 20.503471 -1.322805 -64.817421
v 20.503471 0.000000 -64.817421
v 17.857862 -1.322805 -66.801628
v 17.857862 0.000000 -66.801628
v 15.212253 -1.322805 -68.124435
v 15.212253 0.000000 -68.124435
v 12.566644 -1.322805 -68.785835
v 12.566644 0.000000 -68.785835
v 11.905241 -1.322805 -68.785835
v 11.905241 0.000000 -68.785835
v 5.291218 -1.322805 -68.785835
v 5.291218 0.000000 -68.785835
v -1.322805 -1.322805 -68.785835
v -1.322805 0.000000 -68.785835
v -1.322805 -1.322805 -68.785835
v -1.322805 0.000000 -68.785835
v -1.322805 -1.322805 -66.140228
v -1.322805 0.000000 -66.140228
v -1.322805 -1.322805 -59.526207
v -1.322805 0.000000 -59.526207
v -1.322805 -1.322805 -52.912182
v -1.322805 0.000000 -52.912182
v -1.322805 -1.322805 -46.298161
v -1.322805 0.000000 -46.298161
v 5.291218 -1.322805 -46.298161
v 5.291218 0.000000 -46.298161
v -1.322805 0.000000 -46.298161
v -1.322805 -1.322805 -46.298161
v 11.243839 0.000000 -46.298161
v 11.243839 -1.322805 -46.298161
v -2.645609 0.000000 -39.684135
v -2.645609 -1.322805 -39.684135
v 9.921034 0.000000 -39.684135
v 9.921034 -1.322805 -39.684135
v -3.968414 0.000000 -33.070114
v -3.968414 -1.322805 -33.070114
v 8.598229 0.000000 -33.070114
v 8.598229 -1.322805 -33.070114
v -5.291218 0.000000 -26.456091
v -5.291218 -1.322805 -26.456091
v 7.275425 0.000000 -26.456091
v 7.275425 -1.322805 -26.456091
v -5.291218 0.000000 -26.456091
v -5.291218 -1.322805 -26.456091
v 7.275425 0.000000 -26.456091
v 7.275425 -1.322805 -26.456091
v -6.614023 0.000000 -19.842068
v -6.614023 -1.322805 -19.842068
v 5.952621 0.000000 -19.842068
v 5.952621 -1.322805 -19.842068
v -6.614023 0.000000 -13.228045
v -6.614023 -1.322805 -13.228045
v 5.952621 0.000000 -13.228045
v 5.952621 -1.322805 -13.228045
v -6.614023 0.000000 -6.614023
v -6.614023 -1.322805 -6.614023
v 5.952621 0.000000 -6.614023
v 5.952621 -1.322805 -6.614023
v -6.614023 0.000000 -6.614023
v -6.614023 -1.322805 -6.614023
v 5.952621 0.000000 -6.614023
v 5.952621 -1.322805 -6.614023
v -6.614023 0.000000 0.000000
v -6.614023 -1.322805 0.000000
v 5.952621 0.000000 0.000000
v 5.952621 -1.322805 0.000000
v 5.952621 0.000000 0.000000
v 5.952621 -1.322805 0.000000
vn -0.0000 -0.0000 1.0000
vn 0.2425 -0.0000 0.9701
vn 0.4472 -0.0000 0.8944
vn 0.6000 -0.0000 0.8000
vn 0.8321 -0.0000 0.5547
vn 0.9806 -0.0000 0.1961
vn 1.0000 -0.0000 -0.0000
vn 0.9806 -0.0000 -0.1961
vn 0.8321 -0.0000 -0.5547
vn 0.6000 -0.0000 -0.8000
vn 0.4472 -0.0000 -0.8944
vn 0.2425 -0.0000 -0.9701
vn -0.0000 -0.0000 -1.0000
vn -0.0000 1.0000 -0.0000
vn -1.0000 -0.0000 -0.0000
vn -0.9806 -0.0000 -0.1961
vt 0.867819 0.051798
vt -0.122916 1.116199
vt -0.082635 0.077500
vt 9.615391 0.003169
vt 10.117751 1.007891
vt 9.615391 1.007891
vt 10.117751 0.003169
vt 11.122473 1.007891
vt 11.122473 0.003169
vt 12.629558 1.007891
vt 12.629558 0.003169
vt 14.136642 1.007891
vt 14.136642 0.003169
vt 16.648447 1.007891
vt 16.648447 0.003169
vt 19.662617 1.007891
vt 19.662617 0.003169
vt 22.174419 1.007891
vt 22.174419 0.003169
vt 23.681511 1.007891
vt 23.681511 0.003169
vt 25.188593 1.007891
vt 25.188593 0.003169
vt 26.193317 1.007891
vt 26.193317 0.003169
vt 26.695675 1.007891
vt 26.695675 0.003169
vt 1.000000 1.000000
vt 1.000000 0.000000
vt 24.686230 0.003169
vt 24.686230 1.007891
vt 14.639004 1.007891
vt 14.639004 0.003169
vt 17.877167 1.745570
vt 17.877167 5.093328
vt 16.538065 5.093328
vt 4.591776 1.007891
vt 4.591776 0.003169
vt -0.431835 0.003169
vt -0.431835 1.007891
vt -5.455451 1.007891
vt -5.455451 0.003169
vt -10.479063 1.007891
vt -10.479063 0.003169
vt -15.502677 1.007891
vt -15.502677 0.003169
vt -20.526291 1.007891
vt -20.526291 0.003169
vt -25.549900 1.007891
vt -25.549900 0.003169
vt 0.000000 0.000000
vt -16.939518 1.410792
vt -13.591763 1.410792
vt 6.494789 1.745569
vt 0.836580 1.104661
vt 6.494789 -1.267415
vt 6.494789 -1.936963
vt 6.829564 -3.276068
vt 7.499115 -4.615172
vt 8.503448 -5.954280
vt 9.507773 -6.623825
vt 11.181651 -6.958607
vt 13.190310 -6.958607
vt 14.864182 -6.623825
vt 15.868514 -5.954280
vt 16.872847 -4.615170
vt 17.542397 -3.276065
vt 17.877167 -1.936961
vt 17.877167 -1.602187
vt 9.842549 5.093325
vt 6.494789 5.093325
vt 13.190310 5.093325
vt -10.244008 7.771538
vt -13.591763 7.771538
vt -16.939518 7.771538
vt -6.896248 7.771538
vt 3.147028 5.762879
vt -0.200728 6.432430
vt -3.548487 7.101981
vt 3.147034 -0.597862
vt -0.200728 0.071691
vt -6.896248 1.410793
vt -3.548487 0.741241
vt -10.244002 1.410793
s 0
usemtl wood.001
f 32/28/14 33/29/14 34/28/14
f 41/29/1 44/28/1 42/28/1
f 43/29/1 3/28/1 44/28/1
f 42/28/14 46/29/14 41/29/14
f 1/29/14 47/28/14 48/29/14
f 57/28/14 62/29/14 61/28/14
f 60/29/14 63/28/14 64/29/14
f 73/28/14 78/29/14 74/29/14
f 76/29/14 79/28/14 80/29/14
f 83/51/14 85/51/14 81/51/14
f 86/51/14 84/51/14 82/51/14
f 83/28/1 82/29/1 84/29/1
f 32/28/14 31/29/14 33/29/14
f 41/29/1 43/29/1 44/28/1
f 43/29/1 1/29/1 3/28/1
f 42/28/14 45/28/14 46/29/14
f 1/29/14 3/28/14 47/28/14
f 57/28/14 58/29/14 62/29/14
f 60/29/14 59/28/14 63/28/14
f 73/28/14 77/28/14 78/29/14
f 76/29/14 75/28/14 79/28/14
f 83/28/1 81/28/1 82/29/1
usemtl Material.001
f 30/34/14 32/35/14 36/36/14
f 83/52/14 75/53/14 44/54/14
f 3/56/14 4/57/14 6/58/14
f 6/58/14 8/59/14 10/60/14
f 10/60/14 12/61/14 14/62/14
f 14/62/14 16/63/14 18/64/14
f 18/64/14 20/65/14 22/66/14
f 22/66/14 24/67/14 26/68/14
f 22/66/14 26/68/14 28/69/14
f 14/62/14 18/64/14 22/66/14
f 6/58/14 10/60/14 14/62/14
f 44/54/14 3/56/14 6/58/14
f 40/70/14 42/71/14 44/54/14
f 38/72/14 40/70/14 44/54/14
f 44/54/14 6/58/14 14/62/14
f 14/62/14 22/66/14 28/69/14
f 14/62/14 28/69/14 30/34/14
f 38/72/14 44/54/14 14/62/14
f 36/36/14 38/72/14 14/62/14
f 36/36/14 14/62/14 30/34/14
f 32/35/14 34/35/14 36/36/14
f 69/73/14 77/74/14 73/74/14
f 73/74/14 81/75/14 83/52/14
f 69/73/14 73/74/14 83/52/14
f 65/76/14 69/73/14 83/52/14
f 44/54/14 45/71/14 42/71/14
f 44/54/14 42/71/14 49/77/14
f 44/54/14 49/77/14 53/78/14
f 57/79/14 61/79/14 65/76/14
f 44/54/14 53/78/14 57/79/14
f 44/54/14 57/79/14 65/76/14
f 44/54/14 65/76/14 83/52/14
f 47/56/14 3/56/14 44/54/14
f 51/80/14 47/56/14 44/54/14
f 55/81/14 51/80/14 44/54/14
f 67/82/14 59/83/14 63/83/14
f 63/83/14 55/81/14 44/54/14
f 67/82/14 63/83/14 44/54/14
f 71/84/14 67/82/14 44/54/14
f 83/52/14 79/53/14 75/53/14
f 75/53/14 71/84/14 44/54/14
usemtl paredes
f 2/1/1 3/2/1 1/3/1
f 2/4/2 6/5/2 4/6/2
f 5/7/3 8/8/3 6/5/3
f 7/9/4 10/10/4 8/8/4
f 9/11/5 12/12/5 10/10/5
f 11/13/6 14/14/6 12/12/6
f 13/15/7 16/16/7 14/14/7
f 15/17/8 18/18/8 16/16/8
f 17/19/9 20/20/9 18/18/9
f 19/21/10 22/22/10 20/20/10
f 21/23/11 24/24/11 22/22/11
f 23/25/12 26/26/12 24/24/12
f 25/27/13 28/26/13 26/26/13
f 27/27/13 30/26/13 28/26/13
f 29/27/13 32/26/13 30/26/13
f 34/26/15 35/30/15 36/31/15
f 35/30/15 38/16/15 36/31/15
f 37/17/15 40/32/15 38/16/15
f 39/33/15 42/6/15 40/32/15
f 46/4/16 49/37/16 45/6/16
f 47/6/6 52/38/6 48/4/6
f 49/37/16 54/39/16 53/40/16
f 51/37/6 56/39/6 52/38/6
f 54/39/16 57/41/16 53/40/16
f 55/40/6 60/42/6 56/39/6
f 62/42/16 65/43/16 61/41/16
f 63/41/6 68/44/6 64/42/6
f 66/44/15 69/45/15 65/43/15
f 67/43/7 72/46/7 68/44/7
f 73/47/7 70/46/7 69/45/7
f 71/45/7 76/48/7 72/46/7
f 81/49/7 78/48/7 77/47/7
f 79/47/7 84/50/7 80/48/7
f 85/49/13 82/50/13 81/49/13
f 2/1/1 4/55/1 3/2/1
f 2/4/2 5/7/2 6/5/2
f 5/7/3 7/9/3 8/8/3
f 7/9/4 9/11/4 10/10/4
f 9/11/5 11/13/5 12/12/5
f 11/13/6 13/15/6 14/14/6
f 13/15/7 15/17/7 16/16/7
f 15/17/8 17/19/8 18/18/8
f 17/19/9 19/21/9 20/20/9
f 19/21/10 21/23/10 22/22/10
f 21/23/11 23/25/11 24/24/11
f 23/25/12 25/27/12 26/26/12
f 25/27/13 27/27/13 28/26/13
f 27/27/13 29/27/13 30/26/13
f 29/27/13 31/27/13 32/26/13
f 34/26/15 33/27/15 35/30/15
f 35/30/15 37/17/15 38/16/15
f 37/17/15 39/33/15 40/32/15
f 39/33/15 41/4/15 42/6/15
f 46/4/16 50/38/16 49/37/16
f 47/6/6 51/37/6 52/38/6
f 49/37/16 50/38/16 54/39/16
f 51/37/6 55/40/6 56/39/6
f 54/39/16 58/42/16 57/41/16
f 55/40/6 59/41/6 60/42/6
f 62/42/16 66/44/16 65/43/16
f 63/41/6 67/43/6 68/44/6
f 66/44/15 70/46/15 69/45/15
f 67/43/7 71/45/7 72/46/7
f 73/47/7 74/48/7 70/46/7
f 71/45/7 75/47/7 76/48/7
f 81/49/7 82/50/7 78/48/7
f 79/47/7 83/49/7 84/50/7
f 85/49/13 86/50/13 82/50/13
o Collider_1
v 6.055369 -1.322805 0.000000
v 6.055369 0.000000 0.000000
v 6.055369 -1.322805 -21.164873
v 6.055369 0.000000 -21.164873
v -6.114432 -1.322805 0.000000
v -6.114432 0.000000 0.000000
v -6.114432 -1.322805 -21.164873
v -6.114432 0.000000 -21.164873
vn 1.0000 -0.0000 -0.0000
vn -0.0000 -0.0000 -1.0000
vn -1.0000 -0.0000 -0.0000
vn -0.0000 -0.0000 1.0000
vn -0.0000 -1.0000 -0.0000
vn -0.0000 1.0000 -0.0000
vt 0.375000 0.250000
vt 0.625000 0.000000
vt 0.375000 0.000000
vt 0.375000 0.500000
vt 0.625000 0.250000
vt 0.375000 0.750000
vt 0.625000 0.500000
vt 0.375000 1.000000
vt 0.625000 0.750000
vt 0.125000 0.750000
vt 0.125000 0.500000
vt 0.875000 0.500000
vt 0.625000 1.000000
vt 0.875000 0.750000
s 0
f 89/85/17 88/86/17 87/87/17
f 93/88/18 90/89/18 89/85/18
f 91/90/19 94/91/19 93/88/19
f 87/92/20 92/93/20 91/90/20
f 87/94/21 93/88/21 89/95/21
f 92/93/22 90/96/22 94/91/22
f 89/85/17 90/89/17 88/86/17
f 93/88/18 94/91/18 90/89/18
f 91/90/19 92/93/19 94/91/19
f 87/92/20 88/97/20 92/93/20
f 87/94/21 91/90/21 93/88/21
f 92/93/22 88/98/22 90/96/22
o Collider_2
v 6.587242 -1.322805 -25.242876
v 6.587242 0.000000 -25.242876
v 6.587242 -1.322805 -21.009899
v 6.587242 0.000000 -21.009899
v -6.346652 -1.322805 -25.242876
v -6.346652 0.000000 -25.242876
v -6.346652 -1.322805 -21.009899
v -6.346652 0.000000 -21.009899
vn 1.0000 -0.0000 -0.0000
vn -0.0000 -0.0000 1.0000
vn -1.0000 -0.0000 -0.0000
vn -0.0000 -0.0000 -1.0000
vn -0.0000 -1.0000 -0.0000
vn -0.0000 1.0000 -0.0000
vt 0.625000 0.000000
vt 0.375000 0.250000
vt 0.375000 0.000000
vt 0.625000 0.250000
vt 0.375000 0.500000
vt 0.625000 0.500000
vt 0.375000 0.750000
vt 0.625000 0.750000
vt 0.375000 1.000000
vt 0.125000 0.750000
vt 0.125000 0.500000
vt 0.875000 0.500000
vt 0.625000 1.000000
vt 0.875000 0.750000
s 0
f 96/99/23 97/100/23 95/101/23
f 98/102/24 101/103/24 97/100/24
f 102/104/25 99/105/25 101/103/25
f 100/106/26 95/107/26 99/105/26
f 101/103/27 95/108/27 97/109/27
f 98/110/28 100/106/28 102/104/28
f 96/99/23 98/102/23 97/100/23
f 98/102/24 102/104/24 101/103/24
f 102/104/25 100/106/25 99/105/25
f 100/106/26 96/111/26 95/107/26
f 101/103/27 99/105/27 95/108/27
f 98/110/28 96/112/28 100/106/28
o Collider_3
v 7.526649 -1.322805 -29.211288
v 7.526649 0.000000 -29.211288
v 7.526649 -1.322805 -24.978313
v 7.526649 0.000000 -24.978313
v -5.194829 -1.322805 -29.211288
v -5.194829 0.000000 -29.211288
v -5.194829 -1.322805 -24.978313
v -5.194829 0.000000 -24.978313
vn 1.0000 -0.0000 -0.0000
vn -0.0000 -0.0000 1.0000
vn -1.0000 -0.0000 -0.0000
vn -0.0000 -0.0000 -1.0000
vn -0.0000 -1.0000 -0.0000
vn -0.0000 1.0000 -0.0000
vt 0.625000 0.000000
vt 0.375000 0.250000
vt 0.375000 0.000000
vt 0.625000 0.250000
vt 0.375000 0.500000
vt 0.625000 0.500000
vt 0.375000 0.750000
vt 0.625000 0.750000
vt 0.375000 1.000000
vt 0.125000 0.750000
vt 0.125000 0.500000
vt 0.875000 0.500000
vt 0.625000 1.000000
vt 0.875000 0.750000
s 0
f 104/113/29 105/114/29 103/115/29
f 106/116/30 109/117/30 105/114/30
f 110/118/31 107/119/31 109/117/31
f 108/120/32 103/121/32 107/119/32
f 109/117/33 103/122/33 105/123/33
f 106/124/34 108/120/34 110/118/34
f 104/113/29 106/116/29 105/114/29
f 106/116/30 110/118/30 109/117/30
f 110/118/31 108/120/31 107/119/31
f 108/120/32 104/125/32 103/121/32
f 109/117/33 107/119/33 103/122/33
f 106/124/34 104/126/34 108/120/34
o Collider_4
v 8.225189 -1.322805 -33.385265
v 8.225189 0.000000 -33.385265
v 8.225189 -1.322805 -29.152290
v 8.225189 0.000000 -29.152290
v -4.496290 -1.322805 -33.385265
v -4.496290 0.000000 -33.385265
v -4.496290 -1.322805 -29.152290
v -4.496290 0.000000 -29.152290
vn 1.0000 -0.0000 -0.0000
vn -0.0000 -0.0000 1.0000
vn -1.0000 -0.0000 -0.0000
vn -0.0000 -0.0000 -1.0000
vn -0.0000 -1.0000 -0.0000
vn -0.0000 1.0000 -0.0000
vt 0.625000 0.000000
vt 0.375000 0.250000
vt 0.375000 0.000000
vt 0.625000 0.250000
vt 0.375000 0.500000
vt 0.625000 0.500000
vt 0.375000 0.750000
vt 0.625000 0.750000
vt 0.375000 1.000000
vt 0.125000 0.750000
vt 0.125000 0.500000
vt 0.875000 0.500000
vt 0.625000 1.000000
vt 0.875000 0.750000
s 0
f 112/127/35 113/128/35 111/129/35
f 114/130/36 117/131/36 113/128/36
f 118/132/37 115/133/37 117/131/37
f 116/134/38 111/135/38 115/133/38
f 117/131/39 111/136/39 113/137/39
f 114/138/40 116/134/40 118/132/40
f 112/127/35 114/130/35 113/128/35
f 114/130/36 118/132/36 117/131/36
f 118/132/37 116/134/37 115/133/37
f 116/134/38 112/139/38 111/135/38
f 117/131/39 115/133/39 111/136/39
f 114/138/40 112/140/40 116/134/40
o Collider_7
v 11.265709 -1.322805 -46.484978
v 11.265709 0.000000 -46.484978
v 11.265709 -1.322805 -40.614758
v 11.265709 0.000000 -40.614758
v -1.455770 -1.322805 -46.484978
v -1.455770 0.000000 -46.484978
v -1.455770 -1.322805 -40.614758
v -1.455770 0.000000 -40.614758
vn 1.0000 -0.0000 -0.0000
vn -0.0000 -0.0000 1.0000
vn -1.0000 -0.0000 -0.0000
vn -0.0000 -0.0000 -1.0000
vn -0.0000 -1.0000 -0.0000
vn -0.0000 1.0000 -0.0000
vt 0.625000 0.000000
vt 0.375000 0.250000
vt 0.375000 0.000000
vt 0.625000 0.250000
vt 0.375000 0.500000
vt 0.625000 0.500000
vt 0.375000 0.750000
vt 0.625000 0.750000
vt 0.375000 1.000000
vt 0.125000 0.750000
vt 0.125000 0.500000
vt 0.875000 0.500000
vt 0.625000 1.000000
vt 0.875000 0.750000
s 0
f 120/141/41 121/142/41 119/143/41
f 122/144/42 125/145/42 121/142/42
f 126/146/43 123/147/43 125/145/43
f 124/148/44 119/149/44 123/147/44
f 125/145/45 119/150/45 121/151/45
f 122/152/46 124/148/46 126/146/46
f 120/141/41 122/144/41 121/142/41
f 122/144/42 126/146/42 125/145/42
f 126/146/43 124/148/43 123/147/43
f 124/148/44 120/153/44 119/149/44
f 125/145/45 123/147/45 119/150/45
f 122/152/46 120/154/46 124/148/46
o Collider_6
v 10.135286 -1.322805 -41.492378
v 10.135286 0.000000 -41.492378
v 10.135286 -1.322805 -37.259403
v 10.135286 0.000000 -37.259403
v -2.586193 -1.322805 -41.492378
v -2.586193 0.000000 -41.492378
v -2.586193 -1.322805 -37.259403
v -2.586193 0.000000 -37.259403
vn 1.0000 -0.0000 -0.0000
vn -0.0000 -0.0000 1.0000
vn -1.0000 -0.0000 -0.0000
vn -0.0000 -0.0000 -1.0000
vn -0.0000 -1.0000 -0.0000
vn -0.0000 1.0000 -0.0000
vt 0.625000 0.000000
vt 0.375000 0.250000
vt 0.375000 0.000000
vt 0.625000 0.250000
vt 0.375000 0.500000
vt 0.625000 0.500000
vt 0.375000 0.750000
vt 0.625000 0.750000
vt 0.375000 1.000000
vt 0.125000 0.750000
vt 0.125000 0.500000
vt 0.875000 0.500000
vt 0.625000 1.000000
vt 0.875000 0.750000
s 0
f 128/155/47 129/156/47 127/157/47
f 130/158/48 133/159/48 129/156/48
f 134/160/49 131/161/49 133/159/49
f 132/162/50 127/163/50 131/161/50
f 133/159/51 127/164/51 129/165/51
f 130/166/52 132/162/52 134/160/52
f 128/155/47 130/158/47 129/156/47
f 130/158/48 134/160/48 133/159/48
f 134/160/49 132/162/49 131/161/49
f 132/162/50 128/167/50 127/163/50
f 133/159/51 131/161/51 127/164/51
f 130/166/52 128/168/52 132/162/52
o Collider_5
v 9.195879 -1.322805 -37.523964
v 9.195879 0.000000 -37.523964
v 9.195879 -1.322805 -33.290989
v 9.195879 0.000000 -33.290989
v -3.738014 -1.322805 -37.523964
v -3.738014 0.000000 -37.523964
v -3.738014 -1.322805 -33.290989
v -3.738014 0.000000 -33.290989
vn 1.0000 -0.0000 -0.0000
vn -0.0000 -0.0000 1.0000
vn -1.0000 -0.0000 -0.0000
vn -0.0000 -0.0000 -1.0000
vn -0.0000 -1.0000 -0.0000
vn -0.0000 1.0000 -0.0000
vt 0.625000 0.000000
vt 0.375000 0.250000
vt 0.375000 0.000000
vt 0.625000 0.250000
vt 0.375000 0.500000
vt 0.625000 0.500000
vt 0.375000 0.750000
vt 0.625000 0.750000
vt 0.375000 1.000000
vt 0.125000 0.750000
vt 0.125000 0.500000
vt 0.875000 0.500000
vt 0.625000 1.000000
vt 0.875000 0.750000
s 0
f 136/169/53 137/170/53 135/171/53
f 138/172/54 141/173/54 137/170/54
f 142/174/55 139/175/55 141/173/55
f 140/176/56 135/177/56 139/175/56
f 141/173/57 135/178/57 137/179/57
f 138/180/58 140/176/58 142/174/58
f 136/169/53 138/172/53 137/170/53
f 138/172/54 142/174/54 141/173/54
f 142/174/55 140/176/55 139/175/55
f 140/176/56 136/181/56 135/177/56
f 141/173/57 139/175/57 135/178/57
f 138/180/58 136/182/58 140/176/58
o Collider_8
v 11.444671 -1.322805 -68.883163
v 11.444671 0.000000 -68.883163
v 11.444671 -1.322805 -45.989307
v 11.444671 0.000000 -45.989307
v -1.276808 -1.322805 -68.883163
v -1.276808 0.000000 -68.883163
v -1.276808 -1.322805 -45.989307
v -1.276808 0.000000 -45.989307
vn 1.0000 -0.0000 -0.0000
vn -0.0000 -0.0000 1.0000
vn -1.0000 -0.0000 -0.0000
vn -0.0000 -0.0000 -1.0000
vn -0.0000 -1.0000 -0.0000
vn -0.0000 1.0000 -0.0000
vt 0.625000 0.000000
vt 0.375000 0.250000
vt 0.375000 0.000000
vt 0.625000 0.250000
vt 0.375000 0.500000
vt 0.625000 0.500000
vt 0.375000 0.750000
vt 0.625000 0.750000
vt 0.375000 1.000000
vt 0.125000 0.750000
vt 0.125000 0.500000
vt 0.875000 0.500000
vt 0.625000 1.000000
vt 0.875000 0.750000
s 0
f 144/183/59 145/184/59 143/185/59
f 146/186/60 149/187/60 145/184/60
f 150/188/61 147/189/61 149/187/61
f 148/190/62 143/191/62 147/189/62
f 149/187/63 143/192/63 145/193/63
f 146/194/64 148/190/64 150/188/64
f 144/183/59 146/186/59 145/184/59
f 146/186/60 150/188/60 149/187/60
f 150/188/61 148/190/61 147/189/61
f 148/190/62 144/195/62 143/191/62
f 149/187/63 147/189/63 143/192/63
f 146/194/64 144/196/64 148/190/64
o Collider_9
v 13.991421 -1.322805 -68.674393
v 13.991421 0.000000 -68.674393
v 13.991421 -1.322805 -46.181465
v 13.991421 0.000000 -46.181465
v 11.437618 -1.322805 -68.674393
v 11.437618 0.000000 -68.674393
v 11.437618 -1.322805 -46.181465
v 11.437618 0.000000 -46.181465
vn 1.0000 -0.0000 -0.0000
vn -0.0000 -0.0000 1.0000
vn -1.0000 -0.0000 -0.0000
vn -0.0000 -0.0000 -1.0000
vn -0.0000 -1.0000 -0.0000
vn -0.0000 1.0000 -0.0000
vt 0.625000 0.000000
vt 0.375000 0.250000
vt 0.375000 0.000000
vt 0.625000 0.250000
vt 0.375000 0.500000
vt 0.625000 0.500000
vt 0.375000 0.750000
vt 0.625000 0.750000
vt 0.375000 1.000000
vt 0.125000 0.750000
vt 0.125000 0.500000
vt 0.875000 0.500000
vt 0.625000 1.000000
vt 0.875000 0.750000
s 0
f 152/197/65 153/198/65 151/199/65
f 154/200/66 157/201/66 153/198/66
f 158/202/67 155/203/67 157/201/67
f 156/204/68 151/205/68 155/203/68
f 157/201/69 151/206/69 153/207/69
f 154/208/70 156/204/70 158/202/70
f 152/197/65 154/200/65 153/198/65
f 154/200/66 158/202/66 157/201/66
f 158/202/67 156/204/67 155/203/67
f 156/204/68 152/209/68 151/205/68
f 157/201/69 155/203/69 151/206/69
f 154/208/70 152/210/70 156/204/70
o Collider_10
v 16.518158 -1.322805 -67.711365
v 16.518158 0.000000 -67.711365
v 16.518158 -1.322805 -47.144493
v 16.518158 0.000000 -47.144493
v 13.964355 -1.322805 -67.711365
v 13.964355 0.000000 -67.711365
v 13.964355 -1.322805 -47.144493
v 13.964355 0.000000 -47.144493
vn 1.0000 -0.0000 -0.0000
vn -0.0000 -0.0000 1.0000
vn -1.0000 -0.0000 -0.0000
vn -0.0000 -0.0000 -1.0000
vn -0.0000 -1.0000 -0.0000
vn -0.0000 1.0000 -0.0000
vt 0.625000 0.000000
vt 0.375000 0.250000
vt 0.375000 0.000000
vt 0.625000 0.250000
vt 0.375000 0.500000
vt 0.625000 0.500000
vt 0.375000 0.750000
vt 0.625000 0.750000
vt 0.375000 1.000000
vt 0.125000 0.750000
vt 0.125000 0.500000
vt 0.875000 0.500000
vt 0.625000 1.000000
vt 0.875000 0.750000
s 0
f 160/211/71 161/212/71 159/213/71
f 162/214/72 165/215/72 161/212/72
f 166/216/73 163/217/73 165/215/73
f 164/218/74 159/219/74 163/217/74
f 165/215/75 159/220/75 161/221/75
f 162/222/76 164/218/76 166/216/76
f 160/211/71 162/214/71 161/212/71
f 162/214/72 166/216/72 165/215/72
f 166/216/73 164/218/73 163/217/73
f 164/218/74 160/223/74 159/219/74
f 165/215/75 163/217/75 159/220/75
f 162/222/76 160/224/76 164/218/76
o Collider_11
v 18.011393 -1.322805 -67.008965
v 18.011393 0.000000 -67.008965
v 18.011393 -1.322805 -47.846889
v 18.011393 0.000000 -47.846889
v 16.506769 -1.322805 -67.008965
v 16.506769 0.000000 -67.008965
v 16.506769 -1.322805 -47.846889
v 16.506769 0.000000 -47.846889
vn 1.0000 -0.0000 -0.0000
vn -0.0000 -0.0000 1.0000
vn -1.0000 -0.0000 -0.0000
vn -0.0000 -0.0000 -1.0000
vn -0.0000 -1.0000 -0.0000
vn -0.0000 1.0000 -0.0000
vt 0.625000 0.000000
vt 0.375000 0.250000
vt 0.375000 0.000000
vt 0.625000 0.250000
vt 0.375000 0.500000
vt 0.625000 0.500000
vt 0.375000 0.750000
vt 0.625000 0.750000
vt 0.375000 1.000000
vt 0.125000 0.750000
vt 0.125000 0.500000
vt 0.875000 0.500000
vt 0.625000 1.000000
vt 0.875000 0.750000
s 0
f 168/225/77 169/226/77 167/227/77
f 170/228/78 173/229/78 169/226/78
f 174/230/79 171/231/79 173/229/79
f 172/232/80 167/233/80 171/231/80
f 173/229/81 167/234/81 169/235/81
f 170/236/82 172/232/82 174/230/82
f 168/225/77 170/228/77 169/226/77
f 170/228/78 174/230/78 173/229/78
f 174/230/79 172/232/79 171/231/79
f 172/232/80 168/237/80 167/233/80
f 173/229/81 171/231/81 167/234/81
f 170/236/82 168/238/82 172/232/82
o Collider_12
v 19.613361 -1.322805 -66.085052
v 19.613361 0.000000 -66.085052
v 19.613361 -1.322805 -48.770798
v 19.613361 0.000000 -48.770798
v 18.108738 -1.322805 -66.085052
v 18.108738 0.000000 -66.085052
v 18.108738 -1.322805 -48.770798
v 18.108738 0.000000 -48.770798
vn 1.0000 -0.0000 -0.0000
vn -0.0000 -0.0000 1.0000
vn -1.0000 -0.0000 -0.0000
vn -0.0000 -0.0000 -1.0000
vn -0.0000 -1.0000 -0.0000
vn -0.0000 1.0000 -0.0000
vt 0.625000 0.000000
vt 0.375000 0.250000
vt 0.375000 0.000000
vt 0.625000 0.250000
vt 0.375000 0.500000
vt 0.625000 0.500000
vt 0.375000 0.750000
vt 0.625000 0.750000
vt 0.375000 1.000000
vt 0.125000 0.750000
vt 0.125000 0.500000
vt 0.875000 0.500000
vt 0.625000 1.000000
vt 0.875000 0.750000
s 0
f 176/239/83 177/240/83 175/241/83
f 178/242/84 181/243/84 177/240/84
f 182/244/85 179/245/85 181/243/85
f 180/246/86 175/247/86 179/245/86
f 181/243/87 175/248/87 177/249/87
f 178/250/88 180/246/88 182/244/88
f 176/239/83 178/242/83 177/240/83
f 178/242/84 182/244/84 181/243/84
f 182/244/85 180/246/85 179/245/85
f 180/246/86 176/251/86 175/247/86
f 181/243/87 179/245/87 175/248/87
f 178/250/88 176/252/88 180/246/88
o Collider_13
v 21.123486 -1.322805 -64.905769
v 21.123486 0.000000 -64.905769
v 21.123486 -1.322805 -49.950081
v 21.123486 0.000000 -49.950081
v 19.618864 -1.322805 -64.905769
v 19.618864 0.000000 -64.905769
v 19.618864 -1.322805 -49.950081
v 19.618864 0.000000 -49.950081
vn 1.0000 -0.0000 -0.0000
vn -0.0000 -0.0000 1.0000
vn -1.0000 -0.0000 -0.0000
vn -0.0000 -0.0000 -1.0000
vn -0.0000 -1.0000 -0.0000
vn -0.0000 1.0000 -0.0000
vt 0.625000 0.000000
vt 0.375000 0.250000
vt 0.375000 0.000000
vt 0.625000 0.250000
vt 0.375000 0.500000
vt 0.625000 0.500000
vt 0.375000 0.750000
vt 0.625000 0.750000
vt 0.375000 1.000000
vt 0.125000 0.750000
vt 0.125000 0.500000
vt 0.875000 0.500000
vt 0.625000 1.000000
vt 0.875000 0.750000
s 0
f 184/253/89 185/254/89 183/255/89
f 186/256/90 189/257/90 185/254/90
f 190/258/91 187/259/91 189/257/91
f 188/260/92 183/261/92 187/259/92
f 189/257/93 183/262/93 185/263/93
f 186/264/94 188/260/94 190/258/94
f 184/253/89 186/256/89 185/254/89
f 186/256/90 190/258/90 189/257/90
f 190/258/91 188/260/91 187/259/91
f 188/260/92 184/265/92 183/261/92
f 189/257/93 187/259/93 183/262/93
f 186/264/94 184/266/94 188/260/94
o Collider_14
v 21.961012 -1.322805 -62.979099
v 21.961012 0.000000 -62.979099
v 21.961012 -1.322805 -51.876755
v 21.961012 0.000000 -51.876755
v 21.167507 -1.322805 -62.979099
v 21.167507 0.000000 -62.979099
v 21.167507 -1.322805 -51.876755
v 21.167507 0.000000 -51.876755
vn 1.0000 -0.0000 -0.0000
vn -0.0000 -0.0000 1.0000
vn -1.0000 -0.0000 -0.0000
vn -0.0000 -0.0000 -1.0000
vn -0.0000 -1.0000 -0.0000
vn -0.0000 1.0000 -0.0000
vt 0.625000 0.000000
vt 0.375000 0.250000
vt 0.375000 0.000000
vt 0.625000 0.250000
vt 0.375000 0.500000
vt 0.625000 0.500000
vt 0.375000 0.750000
vt 0.625000 0.750000
vt 0.375000 1.000000
vt 0.125000 0.750000
vt 0.125000 0.500000
vt 0.875000 0.500000
vt 0.625000 1.000000
vt 0.875000 0.750000
s 0
f 192/267/95 193/268/95 191/269/95
f 194/270/96 197/271/96 193/268/96
f 198/272/97 195/273/97 197/271/97
f 196/274/98 191/275/98 195/273/98
f 197/271/99 191/276/99 193/277/99
f 194/278/100 196/274/100 198/272/100
f 192/267/95 194/270/95 193/268/95
f 194/270/96 198/272/96 197/271/96
f 198/272/97 196/274/97 195/273/97
f 196/274/98 192/279/98 191/275/98
f 197/271/99 195/273/99 191/276/99
f 194/278/100 192/280/100 196/274/100
